<svg width="200" height="45" viewBox="0 0 200 45" fill="none" xmlns="http://www.w3.org/2000/svg">
<g clip-path="url(#clip0_7447_45454)">
<path d="M22.9293 44.9634C35.5907 44.9634 45.8548 34.898 45.8548 22.4817C45.8548 10.0654 35.5907 0 22.9293 0C10.268 0 0.00390625 10.0654 0.00390625 22.4817C0.00390625 34.898 10.268 44.9634 22.9293 44.9634Z" fill="#4399EB"/>
<path d="M70.0842 13.0508V32.2425H67.102L56.2917 19.2652V32.2425H52.6758V13.0508H55.658L66.431 26.028V13.0508H70.0842Z" fill="white"/>
<path d="M74.8935 14.6226C74.4462 14.2205 74.2598 13.7453 74.2598 13.1604C74.2598 12.5755 74.4834 12.1003 74.8935 11.6982C75.3035 11.2961 75.8627 11.1133 76.4964 11.1133C77.1301 11.1133 77.652 11.2961 78.0993 11.6616C78.5094 12.0272 78.733 12.5024 78.733 13.0873C78.733 13.6722 78.5094 14.184 78.0993 14.6226C77.6893 15.0613 77.1301 15.2441 76.4964 15.2441C75.8254 15.2075 75.3035 14.9882 74.8935 14.6226ZM74.7071 17.6202H78.2111V32.2424H74.7071V17.6202Z" fill="white"/>
<path d="M86.374 16.8522V17.7295H90.4745V20.4712H86.4858V32.2786H82.9818V20.4712H80.5215V17.7295H82.9818V16.8156C82.9818 15.2437 83.4291 14.0008 84.3983 13.0869C85.3302 12.173 86.6349 11.7344 88.3497 11.7344C89.6917 11.7344 90.7354 11.9903 91.5182 12.5386L90.549 15.0975C89.9526 14.6954 89.3189 14.5126 88.6106 14.5126C87.1195 14.476 86.374 15.2803 86.374 16.8522Z" fill="white"/>
<path d="M101.508 31.4738C101.098 31.8028 100.614 32.0587 100.017 32.2049C99.4208 32.3512 98.8244 32.4608 98.1534 32.4608C96.5132 32.4608 95.2458 32.0587 94.3511 31.2179C93.4564 30.3772 93.0091 29.1708 93.0091 27.5258V20.4706H90.5488V17.7289H93.0091V14.4023H96.5132V17.7289H100.502V20.4706H96.5132V27.4162C96.5132 28.1473 96.6996 28.659 97.035 29.0612C97.3705 29.4267 97.8924 29.6095 98.5634 29.6095C99.3462 29.6095 99.9799 29.4267 100.502 29.0246L101.508 31.4738Z" fill="white"/>
<path d="M117.835 17.6211L110.827 33.4497C110.156 35.0581 109.373 36.1548 108.441 36.8128C107.509 37.4708 106.391 37.7998 105.049 37.7998C104.304 37.7998 103.558 37.6901 102.85 37.4343C102.104 37.1784 101.545 36.8494 101.061 36.4472L102.477 33.9249C102.813 34.2174 103.223 34.4732 103.67 34.656C104.117 34.8388 104.602 34.9485 105.049 34.9485C105.683 34.9485 106.168 34.8022 106.578 34.4732C106.988 34.1442 107.36 33.6325 107.696 32.9014L107.957 32.3165L101.396 17.6211H105.049L109.746 28.4416L114.48 17.6211H117.835Z" fill="white"/>
<path d="M122.197 14.8055H115.301V13.0508H131.144V14.8055H124.247V32.2425H122.197V14.8055Z" fill="white"/>
<path d="M136.586 18.4616C137.518 17.9498 138.637 17.7305 140.016 17.7305V19.6314L139.531 19.5948C137.966 19.5948 136.773 20.07 135.878 20.9839C134.983 21.9344 134.573 23.2138 134.573 24.8954V32.2431H132.598V17.8401H134.499V20.6549C134.946 19.7045 135.654 18.9734 136.586 18.4616Z" fill="white"/>
<path d="M152.094 19.119C153.1 20.0695 153.622 21.4586 153.622 23.2864V32.2425H151.721V30.0126C151.273 30.7803 150.602 31.3652 149.745 31.7673C148.888 32.206 147.844 32.3887 146.651 32.3887C145.011 32.3887 143.706 32.0232 142.737 31.2555C141.768 30.4878 141.283 29.4643 141.283 28.2214C141.283 27.015 141.731 26.028 142.625 25.2604C143.52 24.5293 144.974 24.1272 146.949 24.1272H151.609V23.2498C151.609 22.0069 151.236 21.0565 150.565 20.3985C149.857 19.7405 148.813 19.4115 147.471 19.4115C146.539 19.4115 145.645 19.5577 144.787 19.8501C143.93 20.1426 143.184 20.5813 142.588 21.093L141.693 19.6308C142.439 19.0094 143.333 18.5341 144.377 18.2051C145.421 17.8761 146.502 17.6934 147.658 17.6934C149.596 17.7299 151.05 18.2051 152.094 19.119ZM149.857 30.0857C150.64 29.5739 151.273 28.8428 151.646 27.8924V25.5528H147.024C144.489 25.5528 143.259 26.4302 143.259 28.1117C143.259 28.9525 143.594 29.6105 144.228 30.0857C144.899 30.5609 145.794 30.8168 146.949 30.8168C148.105 30.8534 149.037 30.5975 149.857 30.0857Z" fill="white"/>
<path d="M171.479 11.918V32.2429H169.578V29.3916C168.981 30.3786 168.198 31.1097 167.229 31.6215C166.26 32.1332 165.142 32.3891 163.912 32.3891C162.532 32.3891 161.302 32.0967 160.184 31.4752C159.066 30.8538 158.171 29.9765 157.575 28.8798C156.941 27.7831 156.643 26.5037 156.643 25.078C156.643 23.6523 156.941 22.3729 157.575 21.2762C158.208 20.1795 159.066 19.3022 160.184 18.6808C161.302 18.0593 162.532 17.7669 163.912 17.7669C165.104 17.7669 166.186 18.0228 167.155 18.498C168.124 18.9732 168.907 19.7043 169.503 20.6182V11.918H171.479ZM166.857 29.9765C167.677 29.5012 168.348 28.8432 168.832 28.0025C169.317 27.1617 169.54 26.1747 169.54 25.078C169.54 23.9813 169.317 22.9943 168.832 22.1536C168.348 21.3128 167.714 20.6182 166.857 20.1795C166.036 19.7043 165.104 19.485 164.061 19.485C163.017 19.485 162.085 19.7043 161.265 20.1795C160.445 20.6548 159.774 21.3128 159.289 22.1536C158.805 23.0309 158.581 23.9813 158.581 25.078C158.581 26.1747 158.805 27.1617 159.289 28.0025C159.774 28.8798 160.408 29.5378 161.265 29.9765C162.085 30.4517 163.017 30.671 164.061 30.671C165.104 30.671 165.999 30.4151 166.857 29.9765Z" fill="white"/>
<path d="M189.519 25.6619H177.218C177.33 27.1607 177.926 28.3671 178.97 29.2809C180.014 30.1948 181.393 30.6701 182.996 30.6701C183.891 30.6701 184.748 30.5238 185.531 30.1948C186.276 29.8658 186.947 29.3906 187.507 28.7692L188.625 30.0121C187.954 30.7797 187.171 31.3646 186.165 31.7667C185.195 32.1688 184.114 32.3516 182.921 32.3516C181.393 32.3516 180.088 32.0226 178.896 31.4012C177.74 30.7797 176.808 29.9024 176.174 28.7692C175.503 27.6725 175.205 26.3931 175.205 24.9674C175.205 23.5783 175.503 22.2988 176.137 21.1656C176.771 20.0689 177.628 19.1916 178.709 18.5701C179.79 17.9487 181.02 17.6562 182.4 17.6562C183.742 17.6562 184.972 17.9853 186.053 18.5701C187.134 19.1916 187.991 20.0689 188.588 21.1656C189.221 22.2623 189.519 23.5417 189.519 24.9674V25.6619ZM178.858 20.7269C177.889 21.6043 177.367 22.774 177.218 24.1997H187.656C187.507 22.774 186.985 21.6043 186.015 20.7269C185.046 19.8496 183.853 19.4109 182.437 19.4109C181.02 19.4109 179.827 19.8496 178.858 20.7269Z" fill="white"/>
<path d="M196.565 18.4616C197.497 17.9498 198.615 17.7305 199.994 17.7305V19.6314L199.51 19.5948C197.944 19.5948 196.751 20.07 195.857 20.9839C194.962 21.9344 194.552 23.2138 194.552 24.8954V32.2431H192.576V17.8401H194.477V20.6549C194.962 19.7045 195.633 18.9734 196.565 18.4616Z" fill="white"/>
<path d="M115.527 35.0926V36.2622H117.428V36.8836H115.527V38.3456H114.781V34.5078H117.652V35.0926H115.527Z" fill="white"/>
<path d="M118.211 34.7999C118.137 34.7268 118.1 34.6172 118.1 34.5075C118.1 34.3979 118.137 34.2882 118.211 34.2151C118.286 34.142 118.398 34.1055 118.547 34.1055C118.696 34.1055 118.771 34.142 118.882 34.2151C118.957 34.2882 118.994 34.3979 118.994 34.5075C118.994 34.6172 118.957 34.7268 118.882 34.7999C118.808 34.873 118.696 34.9096 118.547 34.9096C118.398 34.9461 118.286 34.873 118.211 34.7999ZM118.174 35.4213H118.882V38.3453H118.174V35.4213Z" fill="white"/>
<path d="M122.348 35.7137C122.571 35.933 122.683 36.262 122.683 36.664V38.3453H121.975V36.7737C121.975 36.5178 121.9 36.3351 121.789 36.1889C121.677 36.0427 121.49 36.0061 121.267 36.0061C121.006 36.0061 120.819 36.0792 120.67 36.2254C120.521 36.3716 120.447 36.5909 120.447 36.8833V38.3453H119.738V35.4213H120.409V35.7868C120.521 35.6406 120.67 35.531 120.857 35.4944C121.043 35.4213 121.229 35.3848 121.453 35.3848C121.789 35.3848 122.087 35.4944 122.348 35.7137Z" fill="white"/>
<path d="M126.45 34.2891V38.3462H125.779V37.9807C125.667 38.1269 125.518 38.2365 125.369 38.3096C125.182 38.3827 124.996 38.4193 124.809 38.4193C124.511 38.4193 124.25 38.3462 124.027 38.2365C123.803 38.1269 123.617 37.9441 123.505 37.7248C123.393 37.5055 123.318 37.2496 123.318 36.9207C123.318 36.6283 123.393 36.3724 123.505 36.1531C123.654 35.9338 123.803 35.7511 124.027 35.6414C124.25 35.5318 124.511 35.4587 124.809 35.4587C124.996 35.4587 125.182 35.4952 125.369 35.5683C125.518 35.6414 125.667 35.7511 125.779 35.8607V34.3622H126.45V34.2891ZM125.331 37.6882C125.48 37.6151 125.555 37.5055 125.667 37.3593C125.779 37.2131 125.779 37.0669 125.779 36.8841C125.779 36.7014 125.741 36.5552 125.667 36.409C125.592 36.2628 125.48 36.1531 125.331 36.08C125.182 36.0069 125.033 35.9704 124.884 35.9704C124.735 35.9704 124.549 36.0069 124.437 36.08C124.325 36.1531 124.213 36.2628 124.101 36.409C123.989 36.5552 123.989 36.7014 123.989 36.8841C123.989 37.0669 124.027 37.2131 124.101 37.3593C124.176 37.5055 124.288 37.6151 124.437 37.6882C124.586 37.7613 124.735 37.7979 124.884 37.7979C125.033 37.7979 125.22 37.7613 125.331 37.6882Z" fill="white"/>
<path d="M131.593 35.4219L130.177 38.6018C130.028 38.9307 129.879 39.15 129.692 39.2597C129.506 39.4059 129.282 39.4424 129.021 39.4424C128.872 39.4424 128.723 39.4059 128.574 39.3693C128.425 39.3328 128.313 39.2597 128.201 39.1866L128.499 38.6749C128.574 38.748 128.648 38.7845 128.723 38.8211C128.798 38.8576 128.909 38.8942 128.984 38.8942C129.096 38.8942 129.208 38.8576 129.282 38.7845C129.357 38.7114 129.431 38.6018 129.506 38.4556L129.543 38.3459L128.238 35.4219H128.984L129.916 37.5783L130.848 35.4219H131.593Z" fill="white"/>
<path d="M132.414 38.1991C132.19 38.0895 131.966 37.9067 131.854 37.6509C131.743 37.395 131.668 37.1757 131.668 36.8833C131.668 36.5909 131.743 36.3351 131.854 36.1158C131.966 35.8965 132.19 35.7137 132.414 35.5675C132.674 35.4579 132.935 35.3848 133.234 35.3848C133.532 35.3848 133.83 35.4579 134.054 35.5675C134.277 35.7137 134.501 35.8599 134.613 36.1158C134.725 36.3716 134.799 36.5909 134.799 36.8833C134.799 37.1757 134.725 37.4316 134.613 37.6509C134.501 37.8702 134.277 38.0529 134.054 38.1991C133.793 38.3088 133.532 38.3819 133.234 38.3819C132.935 38.3819 132.674 38.3088 132.414 38.1991ZM133.867 37.5412C134.054 37.3585 134.128 37.1392 134.128 36.8833C134.128 36.6275 134.054 36.3716 133.867 36.2254C133.681 36.0792 133.495 35.9696 133.234 35.9696C132.973 35.9696 132.749 36.0427 132.6 36.2254C132.451 36.4082 132.339 36.6275 132.339 36.8833C132.339 37.1392 132.414 37.395 132.6 37.5412C132.749 37.724 132.973 37.7971 133.234 37.7971C133.495 37.7971 133.718 37.724 133.867 37.5412Z" fill="white"/>
<path d="M138.341 35.4219V38.3459H137.67V37.9804C137.558 38.1266 137.409 38.1997 137.26 38.2728C137.111 38.3459 136.925 38.3825 136.701 38.3825C136.291 38.3825 135.993 38.2728 135.769 38.0535C135.545 37.8342 135.434 37.5052 135.434 37.1032V35.4219H136.142V36.9935C136.142 37.2494 136.216 37.4687 136.328 37.5783C136.44 37.7246 136.626 37.7611 136.85 37.7611C137.111 37.7611 137.297 37.688 137.447 37.5418C137.596 37.3956 137.67 37.1763 137.67 36.8839V35.4219H138.341Z" fill="white"/>
<path d="M140.912 35.3848V36.0427C140.837 36.0427 140.8 36.0427 140.763 36.0427C140.502 36.0427 140.278 36.1158 140.129 36.262C139.98 36.4082 139.906 36.6275 139.906 36.9199V38.3453H139.197V35.4213H139.868V35.8234C140.055 35.531 140.427 35.3848 140.912 35.3848Z" fill="white"/>
<path d="M141.696 38.2722C141.472 38.1991 141.286 38.126 141.137 38.0529L141.398 37.5412C141.547 37.6143 141.696 37.6874 141.882 37.7605C142.069 37.7971 142.255 37.8336 142.441 37.8336C142.851 37.8336 143.075 37.724 143.075 37.5047C143.075 37.395 143.038 37.3219 142.926 37.2854C142.814 37.2488 142.665 37.2123 142.404 37.1757C142.143 37.1392 141.957 37.1026 141.808 37.0661C141.659 37.0295 141.509 36.9199 141.398 36.8102C141.286 36.7006 141.211 36.5178 141.211 36.2985C141.211 36.0061 141.323 35.7868 141.584 35.6406C141.808 35.4579 142.143 35.3848 142.553 35.3848C142.74 35.3848 142.963 35.4213 143.187 35.4579C143.373 35.4944 143.56 35.5675 143.672 35.6406L143.411 36.1523C143.15 36.0061 142.889 35.933 142.553 35.933C142.33 35.933 142.18 35.9696 142.069 36.0061C141.957 36.0427 141.92 36.1523 141.92 36.262C141.92 36.3716 141.994 36.4447 142.106 36.4813C142.218 36.5178 142.404 36.5544 142.628 36.6275C142.851 36.664 143.075 36.7006 143.224 36.7371C143.373 36.7737 143.522 36.8468 143.634 36.993C143.746 37.1026 143.783 37.2854 143.783 37.4681C143.783 37.7605 143.672 37.9798 143.411 38.126C143.15 38.3088 142.851 38.3819 142.404 38.3819C142.143 38.3819 141.92 38.3453 141.696 38.2722Z" fill="white"/>
<path d="M147.1 37.1026H144.751C144.789 37.3219 144.9 37.5047 145.087 37.6143C145.273 37.724 145.46 37.7971 145.72 37.7971C146.056 37.7971 146.317 37.6874 146.541 37.4681L146.913 37.9067C146.764 38.0529 146.615 38.1991 146.391 38.2722C146.168 38.3453 145.944 38.3819 145.683 38.3819C145.348 38.3819 145.049 38.3088 144.826 38.1991C144.602 38.0895 144.378 37.9067 144.229 37.6509C144.08 37.395 144.043 37.1757 144.043 36.8833C144.043 36.5909 144.118 36.3351 144.229 36.1158C144.378 35.8965 144.528 35.7137 144.789 35.5675C145.012 35.4579 145.273 35.3848 145.571 35.3848C145.87 35.3848 146.13 35.4579 146.354 35.5675C146.578 35.6772 146.764 35.8599 146.876 36.1158C146.988 36.3351 147.062 36.5909 147.062 36.9199C147.1 36.9564 147.1 36.993 147.1 37.1026ZM145.012 36.1158C144.863 36.262 144.751 36.4082 144.714 36.6275H146.391C146.354 36.4082 146.28 36.262 146.13 36.1158C145.981 35.9696 145.795 35.933 145.571 35.933C145.385 35.933 145.199 36.0061 145.012 36.1158Z" fill="white"/>
<path d="M147.734 34.2891H148.443V38.3462H147.734V34.2891Z" fill="white"/>
<path d="M150.046 35.2759V35.4587H150.866V36.0069H150.083V38.3827H149.375V36.0069H148.891V35.4587H149.375V35.2759C149.375 34.947 149.45 34.7277 149.673 34.5449C149.86 34.3622 150.121 34.2891 150.456 34.2891C150.717 34.2891 150.941 34.3256 151.09 34.4353L150.904 34.947C150.792 34.8739 150.643 34.8373 150.531 34.8373C150.195 34.8008 150.046 34.947 150.046 35.2759Z" fill="white"/>
<path d="M155.786 38.381L155.301 37.9059C154.929 38.1983 154.481 38.381 153.997 38.381C153.736 38.381 153.475 38.3445 153.251 38.2348C153.028 38.1252 152.878 38.0155 152.729 37.8693C152.618 37.7231 152.543 37.5404 152.543 37.3576C152.543 37.1383 152.618 36.919 152.767 36.7363C152.916 36.5535 153.139 36.3708 153.475 36.188C153.326 36.0418 153.214 35.8956 153.139 35.7494C153.065 35.6032 153.028 35.4936 153.028 35.3474C153.028 35.0915 153.139 34.8722 153.326 34.6894C153.549 34.5067 153.81 34.4336 154.146 34.4336C154.444 34.4336 154.705 34.5067 154.891 34.6529C155.078 34.7991 155.19 35.0184 155.19 35.2743C155.19 35.457 155.115 35.6398 155.003 35.786C154.891 35.9322 154.668 36.0784 154.407 36.2611L155.264 37.0652C155.376 36.8825 155.413 36.6632 155.488 36.4073L156.047 36.5901C155.972 36.919 155.861 37.2114 155.712 37.4673L156.196 37.9424L155.786 38.381ZM154.891 37.5404L153.848 36.5535C153.624 36.6632 153.475 36.7728 153.363 36.919C153.289 37.0287 153.214 37.1383 153.214 37.2845C153.214 37.4307 153.289 37.5769 153.438 37.6866C153.587 37.7962 153.773 37.8328 153.997 37.8328C154.332 37.8328 154.63 37.7231 154.891 37.5404ZM153.773 35.055C153.699 35.1281 153.624 35.2377 153.624 35.3474C153.624 35.4205 153.661 35.5301 153.699 35.6032C153.736 35.6763 153.848 35.786 153.997 35.9322C154.22 35.8225 154.37 35.7129 154.481 35.6032C154.556 35.5301 154.63 35.4205 154.63 35.3108C154.63 35.2012 154.593 35.0915 154.519 35.055C154.444 34.9819 154.332 34.9453 154.183 34.9453C153.997 34.9453 153.885 34.9819 153.773 35.055Z" fill="white"/>
<path d="M159.029 35.0921H157.725V34.4707H161.042V35.0921H159.738V38.3085H158.992V35.0921H159.029Z" fill="white"/>
<path d="M163.129 35.3848V36.0427C163.054 36.0427 163.017 36.0427 162.98 36.0427C162.719 36.0427 162.495 36.1158 162.346 36.262C162.197 36.4082 162.122 36.6275 162.122 36.9199V38.3453H161.414V35.4213H162.085V35.8234C162.271 35.531 162.607 35.3848 163.129 35.3848Z" fill="white"/>
<path d="M165.776 35.6766C166 35.8959 166.112 36.1883 166.112 36.6269V38.3448H165.441V37.9793C165.366 38.0889 165.217 38.1986 165.068 38.2717C164.919 38.3448 164.733 38.3813 164.509 38.3813C164.285 38.3813 164.099 38.3448 163.913 38.2717C163.726 38.1986 163.614 38.0889 163.54 37.9427C163.465 37.7965 163.391 37.6503 163.391 37.5041C163.391 37.2483 163.502 37.029 163.689 36.8828C163.875 36.7366 164.211 36.6269 164.621 36.6269H165.404V36.5904C165.404 36.3711 165.329 36.2249 165.217 36.1152C165.105 36.0056 164.919 35.9325 164.658 35.9325C164.472 35.9325 164.323 35.969 164.173 36.0056C164.024 36.0421 163.875 36.1152 163.763 36.2249L163.502 35.7132C163.652 35.6035 163.838 35.4939 164.062 35.4573C164.285 35.4208 164.509 35.3477 164.77 35.3477C165.217 35.3842 165.553 35.4939 165.776 35.6766ZM165.143 37.76C165.292 37.6869 165.366 37.5772 165.441 37.431V37.1021H164.733C164.323 37.1021 164.136 37.2483 164.136 37.5041C164.136 37.6138 164.173 37.7234 164.285 37.7965C164.397 37.8696 164.509 37.9062 164.695 37.9062C164.882 37.8696 165.031 37.8331 165.143 37.76Z" fill="white"/>
<path d="M169.914 34.2891V38.3462H169.243V37.9807C169.132 38.1269 168.983 38.2365 168.833 38.3096C168.647 38.3827 168.461 38.4193 168.274 38.4193C167.976 38.4193 167.715 38.3462 167.491 38.2365C167.268 38.1269 167.081 37.9441 166.97 37.7248C166.858 37.5055 166.783 37.2496 166.783 36.9207C166.783 36.6283 166.858 36.3724 166.97 36.1531C167.119 35.9338 167.268 35.7511 167.491 35.6414C167.715 35.5318 167.976 35.4587 168.274 35.4587C168.461 35.4587 168.647 35.4952 168.833 35.5683C168.983 35.6414 169.132 35.7511 169.243 35.8607V34.3622H169.914V34.2891ZM168.796 37.6882C168.945 37.6151 169.02 37.5055 169.132 37.3593C169.244 37.2131 169.243 37.0669 169.243 36.8841C169.243 36.7014 169.206 36.5552 169.132 36.409C169.057 36.2628 168.945 36.1531 168.796 36.08C168.647 36.0069 168.498 35.9704 168.349 35.9704C168.2 35.9704 168.013 36.0069 167.902 36.08C167.79 36.1531 167.678 36.2628 167.566 36.409C167.454 36.5552 167.454 36.7014 167.454 36.8841C167.454 37.0669 167.491 37.2131 167.566 37.3593C167.641 37.5055 167.752 37.6151 167.902 37.6882C168.051 37.7613 168.2 37.7979 168.349 37.7979C168.498 37.7979 168.684 37.7613 168.796 37.6882Z" fill="white"/>
<path d="M173.606 37.1026H171.257C171.294 37.3219 171.406 37.5047 171.593 37.6143C171.779 37.724 171.965 37.7971 172.226 37.7971C172.562 37.7971 172.823 37.6874 173.046 37.4681L173.419 37.9067C173.27 38.0529 173.121 38.1991 172.897 38.2722C172.674 38.3453 172.45 38.3819 172.189 38.3819C171.854 38.3819 171.555 38.3088 171.332 38.1991C171.108 38.0895 170.884 37.9067 170.735 37.6509C170.586 37.395 170.549 37.1757 170.549 36.8833C170.549 36.5909 170.623 36.3351 170.735 36.1158C170.884 35.8965 171.033 35.7137 171.294 35.5675C171.518 35.4579 171.779 35.3848 172.077 35.3848C172.375 35.3848 172.636 35.4579 172.86 35.5675C173.084 35.6772 173.27 35.8599 173.382 36.1158C173.494 36.3351 173.568 36.5909 173.568 36.9199C173.606 36.9564 173.606 36.993 173.606 37.1026ZM171.518 36.1158C171.369 36.262 171.257 36.4082 171.22 36.6275H172.897C172.86 36.4082 172.785 36.262 172.636 36.1158C172.487 35.9696 172.301 35.933 172.077 35.933C171.854 35.933 171.667 36.0061 171.518 36.1158Z" fill="white"/>
<path d="M177.48 38.1623C177.406 38.2354 177.294 38.272 177.182 38.3085C177.07 38.3451 176.959 38.3451 176.809 38.3451C176.474 38.3451 176.213 38.272 176.064 38.0892C175.878 37.9064 175.803 37.6871 175.803 37.3582V35.9327H175.318V35.3845H175.803V34.7266H176.511V35.3845H177.294V35.9327H176.511V37.3216C176.511 37.4678 176.549 37.5775 176.623 37.6506C176.698 37.7237 176.809 37.7602 176.921 37.7602C177.07 37.7602 177.22 37.7237 177.294 37.6506L177.48 38.1623Z" fill="white"/>
<path d="M180.613 35.7145C180.837 35.9338 180.949 36.2628 180.949 36.6648V38.3462H180.241V36.7745C180.241 36.5186 180.166 36.3359 180.054 36.1897C179.942 36.0435 179.756 36.0069 179.532 36.0069C179.271 36.0069 179.085 36.08 178.936 36.2262C178.787 36.3724 178.712 36.5917 178.712 36.8841V38.3462H178.004V34.2891H178.712V35.7511C178.824 35.6414 178.973 35.5318 179.122 35.4587C179.309 35.3856 179.495 35.349 179.681 35.349C180.091 35.3856 180.39 35.4952 180.613 35.7145Z" fill="white"/>
<path d="M183.931 35.6766C184.154 35.8959 184.266 36.1883 184.266 36.6269V38.3448H183.595V37.9793C183.521 38.0889 183.372 38.1986 183.222 38.2717C183.073 38.3448 182.887 38.3813 182.663 38.3813C182.44 38.3813 182.253 38.3448 182.067 38.2717C181.88 38.1986 181.769 38.0889 181.694 37.9427C181.619 37.7965 181.545 37.6503 181.545 37.5041C181.545 37.2483 181.657 37.029 181.843 36.8828C182.03 36.7366 182.365 36.6269 182.775 36.6269H183.558V36.5904C183.558 36.3711 183.483 36.2249 183.371 36.1152C183.26 36.0056 183.073 35.9325 182.812 35.9325C182.626 35.9325 182.477 35.969 182.328 36.0056C182.179 36.0421 182.03 36.1152 181.918 36.2249L181.657 35.7132C181.806 35.6035 181.992 35.4939 182.216 35.4573C182.44 35.4208 182.663 35.3477 182.924 35.3477C183.372 35.3842 183.707 35.4939 183.931 35.6766ZM183.297 37.76C183.446 37.6869 183.521 37.5772 183.595 37.431V37.1021H182.887C182.477 37.1021 182.29 37.2483 182.29 37.5041C182.29 37.6138 182.328 37.7234 182.44 37.7965C182.551 37.8696 182.663 37.9062 182.85 37.9062C182.999 37.8696 183.185 37.8331 183.297 37.76Z" fill="white"/>
<path d="M186.912 38.1623C186.838 38.2354 186.726 38.272 186.614 38.3085C186.502 38.3451 186.39 38.3451 186.241 38.3451C185.906 38.3451 185.645 38.272 185.496 38.0892C185.309 37.9064 185.235 37.6871 185.235 37.3582V35.9327H184.75V35.3845H185.235V34.7266H185.943V35.3845H186.726V35.9327H185.943V37.3216C185.943 37.4678 185.98 37.5775 186.055 37.6506C186.129 37.7237 186.241 37.7602 186.353 37.7602C186.502 37.7602 186.651 37.7237 186.726 37.6506L186.912 38.1623Z" fill="white"/>
<path d="M193.585 35.4219L192.467 38.3459H191.796L191.013 36.3356L190.231 38.3459H189.56L188.479 35.4219H189.149L189.932 37.5783L190.752 35.4219H191.349L192.169 37.5783L192.989 35.4219H193.585Z" fill="white"/>
<path d="M196.083 35.6766C196.307 35.8959 196.419 36.1883 196.419 36.6269V38.3448H195.748V37.9793C195.673 38.0889 195.524 38.1986 195.375 38.2717C195.226 38.3448 195.039 38.3813 194.816 38.3813C194.592 38.3813 194.406 38.3448 194.219 38.2717C194.033 38.1986 193.921 38.0889 193.846 37.9427C193.772 37.7965 193.697 37.6503 193.697 37.5041C193.697 37.2483 193.809 37.029 193.996 36.8828C194.182 36.7366 194.517 36.6269 194.927 36.6269H195.71V36.5904C195.71 36.3711 195.636 36.2249 195.524 36.1152C195.412 36.0056 195.226 35.9325 194.965 35.9325C194.778 35.9325 194.629 35.969 194.48 36.0056C194.331 36.0421 194.182 36.1152 194.07 36.2249L193.809 35.7132C193.958 35.6035 194.145 35.4939 194.368 35.4573C194.592 35.4208 194.816 35.3477 195.077 35.3477C195.487 35.3842 195.822 35.4939 196.083 35.6766ZM195.449 37.76C195.598 37.6869 195.673 37.5772 195.748 37.431V37.1021H195.039C194.629 37.1021 194.443 37.2483 194.443 37.5041C194.443 37.6138 194.48 37.7234 194.592 37.7965C194.704 37.8696 194.816 37.9062 195.002 37.9062C195.151 37.8696 195.3 37.8331 195.449 37.76Z" fill="white"/>
<path d="M199.998 35.4219L198.581 38.6018C198.432 38.9307 198.283 39.15 198.097 39.2597C197.91 39.4059 197.686 39.4424 197.426 39.4424C197.276 39.4424 197.127 39.4059 196.978 39.3693C196.829 39.3328 196.717 39.2597 196.605 39.1866L196.904 38.6749C196.978 38.748 197.053 38.7845 197.127 38.8211C197.202 38.8576 197.314 38.8942 197.388 38.8942C197.5 38.8942 197.612 38.8576 197.686 38.7845C197.761 38.7114 197.836 38.6018 197.91 38.4556L197.947 38.3459L196.643 35.4219H197.388L198.32 37.5783L199.252 35.4219H199.998Z" fill="white"/>
<path d="M41.4272 26.7978C43.84 16.7773 37.5124 6.73595 27.2941 4.36982C17.0759 2.0037 6.83632 8.2088 4.42349 18.2293C2.01067 28.2498 8.33824 38.2912 18.5565 40.6573C28.7748 43.0234 39.0143 36.8183 41.4272 26.7978Z" fill="#4399EB"/>
<path d="M22.9293 5.11749C32.6959 5.11749 40.636 12.9038 40.636 22.4814C40.636 32.059 32.6959 39.8454 22.9293 39.8454C13.1627 39.8454 5.22268 32.0956 5.22268 22.4814C5.22268 12.8673 13.1627 5.11749 22.9293 5.11749ZM22.9293 2.55859C11.7089 2.55859 2.61328 11.4782 2.61328 22.4814C2.61328 33.4847 11.7089 42.4042 22.9293 42.4042C34.1497 42.4042 43.2454 33.4847 43.2454 22.4814C43.2826 11.4782 34.187 2.55859 22.9293 2.55859Z" fill="white"/>
<path d="M29.3026 7.96875L25.0902 13.3424H27.2523V24.7112L18.6786 13.1597H14.5781V31.474H12.416L16.6283 36.8843L20.8406 31.474H18.6786V19.8859L27.2523 31.6934H31.3528V13.3424H33.5149L29.3026 7.96875Z" fill="white"/>
</g>
<defs>
<clipPath id="clip0_7447_45454">
<rect width="200" height="45" fill="white"/>
</clipPath>
</defs>
</svg>
