<svg width="375" height="236" viewBox="0 0 375 236" fill="none" xmlns="http://www.w3.org/2000/svg">
<mask id="mask0_7447_46154" style="mask-type:alpha" maskUnits="userSpaceOnUse" x="0" y="0" width="375" height="236">
<rect width="375" height="236" fill="#D9D9D9"/>
</mask>
<g mask="url(#mask0_7447_46154)">
<rect x="-22" y="3" width="650" height="295" fill="#ECF5FE"/>
<g style="mix-blend-mode:hue">
<circle cx="50.6377" cy="70.0964" r="42.4171" transform="rotate(165 50.6377 70.0964)" fill="url(#paint0_linear_7447_46154)"/>
</g>
<path d="M214.236 254.322C270.265 301.477 230.048 316.699 273 367.222L-349 436V3H30.3365C30.3365 3 17.18 104.504 64.0054 162.546C120.152 232.142 137.655 189.868 214.236 254.322Z" fill="url(#paint1_linear_7447_46154)"/>
<g style="mix-blend-mode:color-burn">
<circle cx="336.913" cy="115.384" r="66.7675" transform="rotate(165 336.913 115.384)" fill="url(#paint2_linear_7447_46154)"/>
</g>
<path d="M146.124 225.065C176.433 258.071 195 365 195 365L-205 345.918L-205 -43C-205 -43 -122.295 -40.4468 -66.7978 -4.15428C-9.55663 33.2785 -51.7988 99.3172 -9.21351 148.031C44.9739 210.016 90.1689 164.132 146.124 225.065Z" fill="url(#paint3_linear_7447_46154)"/>
</g>
<defs>
<linearGradient id="paint0_linear_7447_46154" x1="50.6377" y1="27.6793" x2="50.6377" y2="112.514" gradientUnits="userSpaceOnUse">
<stop stop-color="#FFCB57"/>
<stop offset="1" stop-color="white"/>
</linearGradient>
<linearGradient id="paint1_linear_7447_46154" x1="-76.6053" y1="-205.281" x2="344.237" y2="545.004" gradientUnits="userSpaceOnUse">
<stop stop-color="#B7C2FF"/>
<stop offset="1" stop-color="#D5BDF4"/>
</linearGradient>
<linearGradient id="paint2_linear_7447_46154" x1="336.913" y1="48.6164" x2="336.913" y2="182.151" gradientUnits="userSpaceOnUse">
<stop stop-color="#83A9FF"/>
<stop offset="1" stop-color="white"/>
</linearGradient>
<linearGradient id="paint3_linear_7447_46154" x1="-238.487" y1="141.434" x2="24.9818" y2="123.03" gradientUnits="userSpaceOnUse">
<stop stop-color="#839BF3"/>
<stop offset="1" stop-color="#C3DAFC"/>
</linearGradient>
</defs>
</svg>
