<svg width="76" height="76" viewBox="0 0 76 76" fill="none" xmlns="http://www.w3.org/2000/svg">
<mask id="mask0_7696_34297" style="mask-type:alpha" maskUnits="userSpaceOnUse" x="8" y="8" width="60" height="60">
<rect x="8" y="8" width="60" height="60" fill="#D9D9D9"/>
</mask>
<g mask="url(#mask0_7696_34297)">
<path d="M25.5 50.498C22.0417 50.498 19.0938 49.2793 16.6562 46.8418C14.2187 44.4043 13 41.4564 13 37.998C13 34.5397 14.2187 31.5918 16.6562 29.1543C19.0938 26.7168 22.0417 25.498 25.5 25.498H33C33.7083 25.498 34.3021 25.7376 34.7813 26.2168C35.2604 26.696 35.5 27.2897 35.5 27.998C35.5 28.7064 35.2604 29.3001 34.7813 29.7793C34.3021 30.2585 33.7083 30.498 33 30.498H25.5C23.4167 30.498 21.6458 31.2272 20.1875 32.6855C18.7292 34.1439 18 35.9147 18 37.998C18 40.0814 18.7292 41.8522 20.1875 43.3105C21.6458 44.7689 23.4167 45.498 25.5 45.498H33C33.7083 45.498 34.3021 45.7376 34.7813 46.2168C35.2604 46.696 35.5 47.2897 35.5 47.998C35.5 48.7064 35.2604 49.3001 34.7813 49.7793C34.3021 50.2585 33.7083 50.498 33 50.498H25.5ZM30.5 40.498C29.7917 40.498 29.1979 40.2585 28.7188 39.7793C28.2396 39.3001 28 38.7064 28 37.998C28 37.2897 28.2396 36.696 28.7188 36.2168C29.1979 35.7376 29.7917 35.498 30.5 35.498H45.5C46.2083 35.498 46.8021 35.7376 47.2812 36.2168C47.7604 36.696 48 37.2897 48 37.998C48 38.7064 47.7604 39.3001 47.2812 39.7793C46.8021 40.2585 46.2083 40.498 45.5 40.498H30.5ZM43 50.498C42.2917 50.498 41.6979 50.2585 41.2188 49.7793C40.7396 49.3001 40.5 48.7064 40.5 47.998C40.5 47.2897 40.7396 46.696 41.2188 46.2168C41.6979 45.7376 42.2917 45.498 43 45.498H50.5C52.5833 45.498 54.3542 44.7689 55.8125 43.3105C57.2708 41.8522 58 40.0814 58 37.998C58 35.9147 57.2708 34.1439 55.8125 32.6855C54.3542 31.2272 52.5833 30.498 50.5 30.498H43C42.2917 30.498 41.6979 30.2585 41.2188 29.7793C40.7396 29.3001 40.5 28.7064 40.5 27.998C40.5 27.2897 40.7396 26.696 41.2188 26.2168C41.6979 25.7376 42.2917 25.498 43 25.498H50.5C53.9583 25.498 56.9062 26.7168 59.3438 29.1543C61.7812 31.5918 63 34.5397 63 37.998C63 41.4564 61.7812 44.4043 59.3438 46.8418C56.9062 49.2793 53.9583 50.498 50.5 50.498H43Z" fill="#333333"/>
</g>
</svg>
