<svg width="76" height="76" viewBox="0 0 76 76" fill="none" xmlns="http://www.w3.org/2000/svg">
<mask id="mask0_7696_34173" style="mask-type:alpha" maskUnits="userSpaceOnUse" x="8" y="8" width="60" height="60">
<rect x="8" y="8" width="60" height="60" fill="#D9D9D9"/>
</mask>
<g mask="url(#mask0_7696_34173)">
<path d="M35.5 53.002C32.875 53.002 30.4271 52.5436 28.1562 51.627C25.8854 50.7103 23.875 49.4603 22.125 47.877C21.625 47.4186 21.3958 46.8665 21.4375 46.2207C21.4792 45.5749 21.7708 45.0228 22.3125 44.5645C22.8542 44.1061 23.4792 43.8874 24.1875 43.9082C24.8958 43.929 25.5208 44.1686 26.0625 44.627C27.3958 45.7103 28.8438 46.5436 30.4062 47.127C31.9688 47.7103 33.6667 48.002 35.5 48.002C39.6667 48.002 43.2083 46.5436 46.125 43.627C49.0417 40.7103 50.5 37.1686 50.5 33.002C50.5 28.8353 49.0417 25.2936 46.125 22.377C43.2083 19.4603 39.6667 18.002 35.5 18.002C32.0417 18.002 28.9896 19.0436 26.3438 21.127C23.6979 23.2103 21.9375 25.8561 21.0625 29.0645C20.8542 29.7728 20.4792 30.3978 19.9375 30.9395C19.3958 31.4811 18.7708 31.752 18.0625 31.752C17.3542 31.752 16.7812 31.4707 16.3438 30.9082C15.9062 30.3457 15.7708 29.7103 15.9375 29.002C16.8958 24.4186 19.1771 20.6061 22.7812 17.5645C26.3854 14.5228 30.625 13.002 35.5 13.002C41.0833 13.002 45.8125 14.9395 49.6875 18.8145C53.5625 22.6895 55.5 27.4186 55.5 33.002C55.5 35.3353 55.125 37.5332 54.375 39.5957C53.625 41.6582 52.5833 43.5436 51.25 45.252L61.25 55.252C61.7083 55.7103 61.9375 56.2936 61.9375 57.002C61.9375 57.7103 61.7083 58.2936 61.25 58.752C60.7917 59.2103 60.2083 59.4395 59.5 59.4395C58.7917 59.4395 58.2083 59.2103 57.75 58.752L47.75 48.752C46.0417 50.0853 44.1562 51.127 42.0938 51.877C40.0312 52.627 37.8333 53.002 35.5 53.002ZM34.6875 36.377L37 29.1895C37.125 28.8561 37.3229 28.5749 37.5938 28.3457C37.8646 28.1165 38.1875 28.002 38.5625 28.002H40.0625C40.3958 28.002 40.6875 28.0853 40.9375 28.252C41.1875 28.4186 41.3958 28.6478 41.5625 28.9395L44.875 35.502C45.4167 35.502 45.8646 35.679 46.2188 36.0332C46.5729 36.3874 46.75 36.8353 46.75 37.377C46.75 37.9186 46.5729 38.3665 46.2188 38.7207C45.8646 39.0749 45.4167 39.252 44.875 39.252H43.75C43.4167 39.252 43.0938 39.1582 42.7812 38.9707C42.4688 38.7832 42.2292 38.5228 42.0625 38.1895L39.625 33.377L36.875 41.8145C36.75 42.1895 36.5417 42.4811 36.25 42.6895C35.9583 42.8978 35.625 43.002 35.25 43.002H34.125C33.75 43.002 33.4062 42.8874 33.0938 42.6582C32.7812 42.429 32.5625 42.127 32.4375 41.752L28.875 30.002L26.0625 38.002C25.9375 38.377 25.7188 38.679 25.4062 38.9082C25.0938 39.1374 24.7292 39.252 24.3125 39.252H14.875C14.3333 39.252 13.8854 39.0749 13.5312 38.7207C13.1771 38.3665 13 37.9186 13 37.377C13 36.8353 13.1771 36.3874 13.5312 36.0332C13.8854 35.679 14.3333 35.502 14.875 35.502H23L26.6875 24.8145C26.8125 24.4395 27.0312 24.1478 27.3438 23.9395C27.6562 23.7311 28 23.627 28.375 23.627H29.5625C29.9792 23.627 30.3333 23.752 30.625 24.002C30.9167 24.252 31.125 24.5645 31.25 24.9395L34.6875 36.377Z" fill="#333333"/>
</g>
</svg>
