<svg width="20" height="20" viewBox="0 0 20 20" fill="none" xmlns="http://www.w3.org/2000/svg">
<path fill-rule="evenodd" clip-rule="evenodd" d="M8.3953 1.36885C9.32661 0.58278 10.689 0.582779 11.6203 1.36885L12.4685 2.08474C12.8643 2.41884 13.3542 2.62175 13.8703 2.6654L14.9763 2.75892C16.1907 2.86162 17.1541 3.82499 17.2567 5.03936L17.3502 6.14531C17.3939 6.66146 17.5968 7.1513 17.9309 7.54714L18.6468 8.3953C19.4328 9.32661 19.4328 10.689 18.6468 11.6203L17.9309 12.4685C17.5968 12.8643 17.3939 13.3542 17.3502 13.8703L17.2567 14.9763C17.1541 16.1907 16.1907 17.1541 14.9763 17.2567L13.8703 17.3502C13.3542 17.3939 12.8643 17.5968 12.4685 17.9309L11.6203 18.6468C10.689 19.4328 9.32661 19.4328 8.3953 18.6468L7.54715 17.9309C7.1513 17.5968 6.66146 17.3939 6.14531 17.3502L5.03936 17.2567C3.82499 17.1541 2.86162 16.1907 2.75892 14.9763L2.6654 13.8703C2.62175 13.3542 2.41884 12.8643 2.08474 12.4685L1.36885 11.6203C0.58278 10.689 0.582779 9.32661 1.36885 8.3953L2.08474 7.54715C2.41884 7.1513 2.62175 6.66146 2.6654 6.14531L2.75892 5.03936C2.86162 3.82499 3.82499 2.86162 5.03936 2.75892L6.14531 2.6654C6.66146 2.62175 7.1513 2.41884 7.54714 2.08474L8.3953 1.36885ZM7.34675 13.9092L9.99916 11.2568L12.6287 13.9092C12.7964 14.0921 13.006 14.1836 13.2575 14.1836C13.509 14.1836 13.7262 14.0921 13.9092 13.9092C14.0768 13.7415 14.1607 13.5281 14.1607 13.2689C14.1607 13.0098 14.0768 12.7964 13.9092 12.6287L11.2568 9.97629L13.9092 7.34675C14.0921 7.17907 14.1836 6.96947 14.1836 6.71795C14.1836 6.46643 14.0921 6.2492 13.9092 6.06628C13.7415 5.8986 13.5281 5.81476 13.2689 5.81476C13.0098 5.81476 12.7964 5.8986 12.6287 6.06628L9.99916 8.71868L7.34675 6.06628C7.17907 5.8986 6.96566 5.81476 6.70651 5.81476C6.44737 5.81476 6.23396 5.8986 6.06628 6.06628C5.8986 6.23396 5.81476 6.44737 5.81476 6.70651C5.81476 6.96566 5.8986 7.17907 6.06628 7.34675L8.71868 9.97629L6.06628 12.6287C5.8986 12.7964 5.81476 13.0098 5.81476 13.2689C5.81476 13.5281 5.8986 13.7415 6.06628 13.9092C6.23396 14.0768 6.44737 14.1607 6.70651 14.1607C6.96566 14.1607 7.17907 14.0768 7.34675 13.9092Z" fill="#D80000"/>
</svg>
