<svg width="36" height="36" viewBox="0 0 36 36" fill="none" xmlns="http://www.w3.org/2000/svg">
<rect width="36" height="36" rx="18" fill="#485A96"/>
<g clip-path="url(#clip0_7447_45409)">
<path d="M26.8961 28C27.5056 28 27.9999 27.5057 27.9999 26.8962V9.1038C27.9999 8.49405 27.5056 8 26.8961 8H9.1038C8.49405 8 8 8.49413 8 9.1038V26.8961C8 27.5057 8.49405 27.9999 9.1038 27.9999L26.8961 28Z" fill="#485A96"/>
<path d="M19.491 28V18.8771H22.4393L22.8807 15.3217H19.4909V13.0517C19.4909 12.0223 19.7661 11.3209 21.1874 11.3209L23 11.32V8.14008C22.6865 8.09683 21.6104 8 20.3587 8C17.7451 8 15.9559 9.65686 15.9559 12.6997V15.3217H13V18.8771H15.9559V27.9999L19.491 28Z" fill="white"/>
</g>
<defs>
<clipPath id="clip0_7447_45409">
<rect width="20" height="20" fill="white" transform="translate(8 8)"/>
</clipPath>
</defs>
</svg>
