<svg width="36" height="36" viewBox="0 0 36 36" fill="none" xmlns="http://www.w3.org/2000/svg">
<g clip-path="url(#clip0_7447_45430)">
<path d="M27.9196 0H8.08036C3.6177 0 0 3.6177 0 8.08036V27.9196C0 32.3823 3.6177 36 8.08036 36H27.9196C32.3823 36 36 32.3823 36 27.9196V8.08036C36 3.6177 32.3823 0 27.9196 0Z" fill="url(#paint0_linear_7447_45430)"/>
<path d="M14.7628 11.0762H21.3886C21.5358 11.1498 21.7567 11.1498 21.9039 11.2234C22.55 11.3281 23.1541 11.6109 23.6483 12.04C24.1425 12.4691 24.5072 13.0276 24.7015 13.6526C24.8102 14.0127 24.8841 14.3825 24.9223 14.7567V21.2345C24.8171 22.0555 24.5139 22.8386 24.0389 23.5165C23.6314 23.9886 23.1205 24.3603 22.5459 24.6029C21.9713 24.8455 21.3486 24.9523 20.726 24.9151H15.2045C14.2192 24.9629 13.2503 24.6487 12.4806 24.0318C12.0125 23.6274 11.6431 23.1213 11.4007 22.5523C11.1583 21.9833 11.0492 21.3663 11.0818 20.7487V15.5959C11.0697 15.2263 11.0943 14.8564 11.1554 14.4917C11.2298 13.7371 11.5401 13.025 12.0423 12.4568C12.5445 11.8885 13.2131 11.493 13.953 11.3265L14.7628 11.0762ZM12.4806 18.0692V20.9401C12.4492 21.3057 12.4981 21.6737 12.6239 22.0184C12.7497 22.3631 12.9493 22.6761 13.2088 22.9356C13.4683 23.195 13.7814 23.3946 14.1261 23.5204C14.4708 23.6462 14.8389 23.6951 15.2045 23.6637C17.1186 23.7373 19.0327 23.7373 20.9469 23.6637C22.6401 23.6637 23.5972 22.6331 23.6708 20.9401C23.7444 19.0262 23.7444 17.1123 23.6708 15.1984C23.6899 14.8357 23.6325 14.4731 23.5023 14.134C23.3722 13.7949 23.1722 13.487 22.9154 13.2301C22.6585 12.9733 22.3505 12.7734 22.0114 12.6432C21.6723 12.5131 21.3096 12.4557 20.9469 12.4748C19.0327 12.4012 17.1186 12.4012 15.2045 12.4748C14.8389 12.4434 14.4708 12.4923 14.1261 12.6181C13.7814 12.7439 13.4683 12.9435 13.2088 13.2029C12.9493 13.4624 12.7497 13.7754 12.6239 14.1201C12.4981 14.4648 12.4492 14.8328 12.4806 15.1984V18.0692Z" fill="white"/>
<path d="M14.498 18.0991C14.5 17.1431 14.8807 16.2268 15.5568 15.5508C16.2329 14.8748 17.1493 14.4941 18.1054 14.4922C19.0562 14.511 19.9629 14.8971 20.6354 15.5695C21.3078 16.2419 21.6939 17.1484 21.7128 18.0991C21.7108 19.0552 21.3301 19.9715 20.6541 20.6475C19.978 21.3235 19.0615 21.7042 18.1054 21.7061C17.1546 21.6873 16.2479 21.3012 15.5755 20.6288C14.903 19.9564 14.5169 19.0499 14.498 18.0991ZM18.1054 15.8172C17.6583 15.8099 17.2191 15.9363 16.8443 16.1802C16.4694 16.4241 16.176 16.7743 16.0015 17.186C15.827 17.5977 15.7794 18.0522 15.8649 18.4911C15.9503 18.93 16.1649 19.3334 16.4812 19.6496C16.7974 19.9658 17.2008 20.1804 17.6398 20.2658C18.0788 20.3513 18.5333 20.3037 18.945 20.1292C19.3568 19.9548 19.7071 19.6613 19.951 19.2865C20.1949 18.9117 20.3213 18.4726 20.314 18.0255C20.314 17.4398 20.0813 16.8781 19.6671 16.464C19.2529 16.0499 18.6912 15.8172 18.1054 15.8172Z" fill="white"/>
<path d="M20.9029 14.3448C20.8988 14.2277 20.9188 14.111 20.9617 14.002C21.0047 13.8929 21.0696 13.7939 21.1525 13.711C21.2353 13.6282 21.3344 13.5633 21.4434 13.5203C21.5525 13.4774 21.6692 13.4574 21.7863 13.4615C22.0155 13.477 22.2313 13.575 22.3937 13.7374C22.5562 13.8998 22.6542 14.1156 22.6697 14.3448C22.6697 14.5791 22.5767 14.8038 22.411 14.9694C22.2453 15.1351 22.0206 15.2281 21.7863 15.2281C21.552 15.2281 21.3273 15.1351 21.1616 14.9694C20.9959 14.8038 20.9029 14.5791 20.9029 14.3448Z" fill="white"/>
</g>
<defs>
<linearGradient id="paint0_linear_7447_45430" x1="-2.29442" y1="37.9952" x2="40.1025" y2="-3.77832" gradientUnits="userSpaceOnUse">
<stop stop-color="#FED576"/>
<stop offset="0.26" stop-color="#F47133"/>
<stop offset="0.61" stop-color="#BC3081"/>
<stop offset="1" stop-color="#4C63D2"/>
</linearGradient>
<clipPath id="clip0_7447_45430">
<rect width="36" height="36" rx="18" fill="white"/>
</clipPath>
</defs>
</svg>
