<svg width="77" height="76" viewBox="0 0 77 76" fill="none" xmlns="http://www.w3.org/2000/svg">
<mask id="mask0_7696_34203" style="mask-type:alpha" maskUnits="userSpaceOnUse" x="8" y="8" width="61" height="60">
<rect x="8.66602" y="8" width="60" height="60" fill="#D9D9D9"/>
</mask>
<g mask="url(#mask0_7696_34203)">
<path d="M13.0411 51.8772C12.4994 51.5022 12.1765 50.9918 12.0724 50.346C11.9682 49.7001 12.0828 49.0855 12.4161 48.5022L21.8536 33.3772C22.3119 32.6689 22.9474 32.2835 23.7599 32.221C24.5724 32.1585 25.2703 32.4397 25.8536 33.0647L31.1661 39.2522L39.1036 26.3147C39.5619 25.523 40.2599 25.1272 41.1974 25.1272C42.1349 25.1272 42.8536 25.5022 43.3536 26.2522L45.9161 30.1272C46.3744 30.8356 46.5099 31.5126 46.3224 32.1585C46.1349 32.8043 45.7703 33.2939 45.2286 33.6272C44.6869 33.9606 44.0932 34.096 43.4474 34.0335C42.8015 33.971 42.2494 33.5856 41.7911 32.8772L41.3536 32.2522L33.6661 44.7522C33.2078 45.4606 32.5619 45.8564 31.7286 45.9397C30.8953 46.0231 30.1869 45.7314 29.6036 45.0647L24.2911 38.8772L16.6661 51.1897C16.2911 51.8147 15.739 52.2001 15.0099 52.346C14.2807 52.4918 13.6244 52.3355 13.0411 51.8772ZM48.8536 59.4397C45.7286 59.4397 43.0724 58.346 40.8849 56.1585C38.6974 53.971 37.6036 51.3147 37.6036 48.1897C37.6036 45.0647 38.6974 42.4085 40.8849 40.221C43.0724 38.0335 45.7286 36.9397 48.8536 36.9397C51.9786 36.9397 54.6349 38.0335 56.8224 40.221C59.0099 42.4085 60.1036 45.0647 60.1036 48.1897C60.1036 49.273 59.9578 50.3251 59.6661 51.346C59.3744 52.3668 58.9369 53.3147 58.3536 54.1897L64.3536 60.1897C64.8536 60.6897 65.114 61.2731 65.1349 61.9397C65.1557 62.6064 64.9161 63.1897 64.4161 63.6897C63.9161 64.1897 63.3224 64.4397 62.6349 64.4397C61.9474 64.4397 61.3536 64.1897 60.8536 63.6897L54.7911 57.6897C53.9578 58.273 53.0307 58.7106 52.0099 59.0022C50.989 59.2939 49.9369 59.4397 48.8536 59.4397ZM48.8536 54.4397C50.6036 54.4397 52.0828 53.8355 53.2911 52.6272C54.4994 51.4189 55.1036 49.9397 55.1036 48.1897C55.1036 46.4397 54.4994 44.9606 53.2911 43.7522C52.0828 42.5439 50.6036 41.9397 48.8536 41.9397C47.1036 41.9397 45.6244 42.5439 44.4161 43.7522C43.2078 44.9606 42.6036 46.4397 42.6036 48.1897C42.6036 49.9397 43.2078 51.4189 44.4161 52.6272C45.6244 53.8355 47.1036 54.4397 48.8536 54.4397ZM51.9161 33.7522C51.3744 33.4189 50.9994 32.9397 50.7911 32.3147C50.5828 31.6897 50.7078 31.0231 51.1661 30.3147L60.6661 15.2522C61.0411 14.6689 61.5828 14.2939 62.2911 14.1272C62.9994 13.9605 63.6453 14.1064 64.2286 14.5647C64.7703 14.9397 65.1036 15.4501 65.2286 16.096C65.3536 16.7418 65.2494 17.3564 64.9161 17.9397L55.3536 32.9397C54.8953 33.6481 54.3432 34.0439 53.6974 34.1272C53.0515 34.2106 52.4578 34.0856 51.9161 33.7522Z" fill="#333333"/>
</g>
</svg>
