<svg width="77" height="76" viewBox="0 0 77 76" fill="none" xmlns="http://www.w3.org/2000/svg">
<mask id="mask0_7696_22175" style="mask-type:alpha" maskUnits="userSpaceOnUse" x="8" y="8" width="61" height="60">
<rect x="8.33398" y="8" width="60" height="60" fill="#D9D9D9"/>
</mask>
<g mask="url(#mask0_7696_22175)">
<path d="M23.334 63.002C21.959 63.002 20.7819 62.5124 19.8027 61.5332C18.8236 60.554 18.334 59.377 18.334 58.002V18.002C18.334 16.627 18.8236 15.4499 19.8027 14.4707C20.7819 13.4915 21.959 13.002 23.334 13.002H43.5215C44.2715 13.002 44.9798 13.1582 45.6465 13.4707C46.3132 13.7832 46.8757 14.2311 47.334 14.8145L57.1465 26.627C57.5215 27.0853 57.8132 27.5853 58.0215 28.127C58.2298 28.6686 58.334 29.2311 58.334 29.8145V58.002C58.334 59.127 57.8236 59.8978 56.8027 60.3145C55.7819 60.7311 54.8757 60.5436 54.084 59.752L43.334 49.127C42.6257 49.5853 41.8548 49.929 41.0215 50.1582C40.1882 50.3874 39.2923 50.502 38.334 50.502C35.584 50.502 33.2298 49.5228 31.2715 47.5645C29.3132 45.6061 28.334 43.252 28.334 40.502C28.334 37.752 29.3132 35.3978 31.2715 33.4395C33.2298 31.4811 35.584 30.502 38.334 30.502C41.084 30.502 43.4382 31.4811 45.3965 33.4395C47.3548 35.3978 48.334 37.752 48.334 40.502C48.334 41.4603 48.2194 42.3561 47.9902 43.1895C47.7611 44.0228 47.4173 44.7936 46.959 45.502L53.334 52.002V29.752L43.459 18.002H23.334V58.002H44.1465C44.9798 58.002 45.6048 58.2624 46.0215 58.7832C46.4382 59.304 46.6465 59.877 46.6465 60.502C46.6465 61.127 46.4382 61.6999 46.0215 62.2207C45.6048 62.7415 44.9798 63.002 44.1465 63.002H23.334ZM38.334 45.502C39.709 45.502 40.8861 45.0124 41.8652 44.0332C42.8444 43.054 43.334 41.877 43.334 40.502C43.334 39.127 42.8444 37.9499 41.8652 36.9707C40.8861 35.9915 39.709 35.502 38.334 35.502C36.959 35.502 35.7819 35.9915 34.8027 36.9707C33.8236 37.9499 33.334 39.127 33.334 40.502C33.334 41.877 33.8236 43.054 34.8027 44.0332C35.7819 45.0124 36.959 45.502 38.334 45.502Z" fill="#333333"/>
</g>
</svg>
