<svg width="31" height="30" viewBox="0 0 31 30" fill="none" xmlns="http://www.w3.org/2000/svg">
<mask id="mask0_7696_30048" style="mask-type:alpha" maskUnits="userSpaceOnUse" x="0" y="0" width="31" height="30">
<rect x="0.5" width="30" height="30" fill="#D9D9D9"/>
</mask>
<g mask="url(#mask0_7696_30048)">
<path d="M20.6875 16.2487H6.75C6.39583 16.2487 6.09896 16.1289 5.85937 15.8893C5.61979 15.6497 5.5 15.3528 5.5 14.9987C5.5 14.6445 5.61979 14.3476 5.85937 14.108C6.09896 13.8685 6.39583 13.7487 6.75 13.7487H20.6875L17.125 10.1862C16.875 9.93617 16.7552 9.64451 16.7656 9.31117C16.776 8.97784 16.8958 8.68617 17.125 8.43617C17.375 8.18617 17.6719 8.05596 18.0156 8.04555C18.3594 8.03513 18.6562 8.15492 18.9062 8.40492L24.625 14.1237C24.75 14.2487 24.8385 14.3841 24.8906 14.5299C24.9427 14.6758 24.9687 14.832 24.9687 14.9987C24.9687 15.1653 24.9427 15.3216 24.8906 15.4674C24.8385 15.6133 24.75 15.7487 24.625 15.8737L18.9062 21.5924C18.6562 21.8424 18.3594 21.9622 18.0156 21.9518C17.6719 21.9414 17.375 21.8112 17.125 21.5612C16.8958 21.3112 16.776 21.0195 16.7656 20.6862C16.7552 20.3528 16.875 20.0612 17.125 19.8112L20.6875 16.2487Z" fill="#333333"/>
</g>
</svg>
