<svg width="36" height="36" viewBox="0 0 36 36" fill="none" xmlns="http://www.w3.org/2000/svg">
<rect width="36" height="36" rx="18" fill="#2AA1D4"/>
<path d="M16.0161 25.0371C15.538 25.0371 15.6238 24.8178 15.4522 24.2767L14.0547 18.7782L22.734 12.3145L23.7515 12.6362L22.9056 15.3854L16.0161 25.0371Z" fill="#C8DAEA"/>
<path d="M16.0156 25.0382C16.3834 25.0382 16.5428 24.8335 16.7512 24.5995C17.0699 24.2339 21.1644 19.4812 21.1644 19.4812L18.6513 18.75L16.3221 20.5049L16.0156 24.892V25.0382Z" fill="#A9C9DD"/>
<path d="M16.261 20.5631L22.1943 25.7838C22.8686 26.2225 23.3589 26.0031 23.5306 25.038L25.9456 11.4671C26.1907 10.2826 25.5655 9.75615 24.9158 10.1071L10.7446 16.6293C9.7761 17.0973 9.78836 17.7407 10.5729 18.0186L14.2138 19.3786L22.6357 13.0465C23.0279 12.754 23.3957 12.9149 23.1015 13.2366L16.261 20.5631Z" fill="url(#paint0_linear_7447_45436)"/>
<defs>
<linearGradient id="paint0_linear_7447_45436" x1="19.815" y1="17.544" x2="23.713" y2="22.7723" gradientUnits="userSpaceOnUse">
<stop stop-color="#EFF7FC"/>
<stop offset="1" stop-color="white"/>
</linearGradient>
</defs>
</svg>
