<svg width="36" height="36" viewBox="0 0 36 36" fill="none" xmlns="http://www.w3.org/2000/svg">
<rect width="36" height="36" rx="18" fill="#333333"/>
<g clip-path="url(#clip0_7447_45413)">
<mask id="mask0_7447_45413" style="mask-type:luminance" maskUnits="userSpaceOnUse" x="8" y="8" width="20" height="20">
<path d="M28 8H8V28H28V8Z" fill="white"/>
</mask>
<g mask="url(#mask0_7447_45413)">
<path d="M25.6562 8H10.3438C9.04933 8 8 9.04933 8 10.3438V25.6562C8 26.9507 9.04933 28 10.3438 28H25.6562C26.9507 28 28 26.9507 28 25.6562V10.3438C28 9.04933 26.9507 8 25.6562 8Z" fill="#333333"/>
<path d="M21.9019 11.9062H23.9694L19.4526 17.0688L24.7663 24.0938H20.6057L17.3469 19.8331L13.6182 24.0938H11.5495L16.3807 18.5719L11.2832 11.9062H15.5494L18.4951 15.8006L21.9019 11.9062ZM21.1763 22.8563H22.3219L14.9269 13.0788H13.6976L21.1763 22.8563Z" fill="white"/>
</g>
</g>
<defs>
<clipPath id="clip0_7447_45413">
<rect width="20" height="20" fill="white" transform="translate(8 8)"/>
</clipPath>
</defs>
</svg>
