<svg width="174" height="174" viewBox="0 0 174 174" fill="none" xmlns="http://www.w3.org/2000/svg">
<path d="M86.9999 166.631C130.978 166.631 166.63 130.979 166.63 87.0009C166.63 43.0226 130.978 7.37109 86.9999 7.37109C43.0216 7.37109 7.37012 43.0226 7.37012 87.0009C7.37012 130.979 43.0216 166.631 86.9999 166.631Z" fill="#A8A09D"/>
<path d="M87 173C134.496 173 173 134.496 173 87C173 39.5035 134.496 1 87 1C39.5035 1 1 39.5035 1 87C1 134.496 39.5035 173 87 173Z" stroke="#A8A09D" stroke-width="2" stroke-miterlimit="10"/>
<mask id="mask0_6711_44333" style="mask-type:luminance" maskUnits="userSpaceOnUse" x="7" y="7" width="160" height="160">
<path d="M86.9999 166.623C130.978 166.623 166.63 130.971 166.63 86.9931C166.63 43.0148 130.978 7.36328 86.9999 7.36328C43.0216 7.36328 7.37012 43.0148 7.37012 86.9931C7.37012 130.971 43.0216 166.623 86.9999 166.623Z" fill="white"/>
</mask>
<g mask="url(#mask0_6711_44333)">
<path d="M68.8946 160.123C54.4438 159.994 40.0629 155.408 28.2055 147.147C16.3481 138.885 7.66433 126.64 2.5376 113.129C5.09602 108.524 7.90694 103.667 12.5812 101.239C14.7411 100.117 17.1915 99.583 19.2426 98.2733C22.5836 96.1408 24.3815 92.2773 25.5413 88.4868C26.7011 84.6971 27.4252 80.7119 29.3904 77.2698C31.2871 73.9478 34.2525 71.3255 37.541 69.3709C40.7192 67.4818 44.3143 66.0983 46.8004 63.362C49.2767 60.6355 50.3133 56.9332 51.2724 53.377C52.5014 54.3466 54.2012 53.6447 55.7641 53.723C64.298 54.1512 72.8904 53.4104 81.2251 51.5273C85.2612 74.2451 83.6489 97.6109 81.2981 120.564C80.4752 128.604 79.65 136.656 78.1054 144.588C76.9532 150.506 73.6 156.356 68.8946 160.123Z" fill="#000035"/>
<path d="M103.935 160.123C118.386 159.994 132.767 155.408 144.625 147.147C156.482 138.885 165.166 126.64 170.292 113.129C167.734 108.524 164.923 103.667 160.249 101.239C158.089 100.117 155.639 99.583 153.587 98.2733C150.246 96.1408 148.448 92.2773 147.289 88.4868C146.129 84.6971 145.405 80.7119 143.44 77.2698C141.543 73.9478 138.578 71.3255 135.29 69.3709C132.112 67.4818 128.517 66.0983 126.03 63.362C123.554 60.6355 122.517 56.9332 121.558 53.377C120.329 54.3466 118.63 53.6447 117.066 53.723C108.532 54.1512 99.9396 53.4104 91.605 51.5273C87.5696 74.2451 89.1819 97.6109 91.5319 120.564C92.3548 128.604 93.18 136.656 94.7246 144.588C95.8768 150.506 99.23 156.356 103.935 160.123Z" fill="#000035"/>
<path d="M109.375 123.433C108.85 123.223 108.331 123.011 107.828 122.798C107.698 122.743 107.579 122.686 107.451 122.631C106.622 122.274 105.837 121.91 105.086 121.543C104.887 121.445 104.678 121.349 104.486 121.251C104.078 121.043 103.687 120.832 103.31 120.619C101.387 119.534 99.8992 118.392 99.058 117.163C98.8322 116.833 98.6435 116.499 98.5165 116.156C95.9026 109.082 96.9491 101.086 96.9491 101.086L88.2912 101.682L79.0165 101.086C79.0165 101.086 80.6791 109.082 78.0651 116.156C77.9921 116.353 77.8948 116.547 77.789 116.739C76.9547 118.253 75.1181 119.633 72.6874 120.937C72.5703 120.999 72.4608 121.063 72.3414 121.125C72.0676 121.267 71.7968 121.41 71.5101 121.551C70.7009 121.948 69.8331 122.337 68.9311 122.721C68.4429 122.93 67.9478 123.137 67.439 123.342C67.0625 123.494 66.6754 123.645 66.2891 123.795L88.1148 156.534L109.375 123.433Z" fill="#EBA08C"/>
<path d="M134.191 133.84C128.951 129.91 117.855 126.833 109.375 123.434L88.1115 156.533L66.2858 123.795C57.9375 127.053 47.4407 130.049 42.3869 133.84C33.7755 140.298 29.7773 167.671 29.7773 167.671H67.8662H73.5953H88.0575H88.5192H109.898H118.707H146.8C146.8 167.671 142.803 140.298 134.191 133.84Z" fill="#2847FB"/>
<path d="M86.4242 98.8781C106.678 98.8781 123.097 83.0281 123.097 63.4761C123.097 43.9242 106.678 28.0742 86.4242 28.0742C66.1704 28.0742 49.7515 43.9242 49.7515 63.4761C49.7515 83.0281 66.1704 98.8781 86.4242 98.8781Z" fill="#000035"/>
<path d="M118.189 70.7644C118.189 88.0832 107.175 108.752 86.8303 108.752C66.4862 108.752 55.4722 88.0832 55.4722 70.7644C55.4722 53.4456 69.5116 39.4062 86.8303 39.4062C104.149 39.4062 118.189 53.4464 118.189 70.7644Z" fill="#EBA08C"/>
<path d="M58.9649 71.8193C62.2237 66.3831 64.827 53.2388 63.3577 50.0834C62.9051 49.1114 59.9611 50.3153 59.1276 49.8104C57.6545 48.9167 55.7744 49.481 54.5157 50.7557C53.2571 52.0303 52.5216 53.8845 52.0045 55.7493C50.4895 61.216 50.5914 67.1101 51.4508 72.7168C51.8607 75.3923 51.7756 77.4092 54.3872 76.2152C56.2376 75.3672 57.8241 73.7214 58.9649 71.8193Z" fill="#000035"/>
<path d="M114.449 72.2459C112.859 69.5871 112.039 66.383 111.556 63.1735C111.022 59.6249 110.912 55.7728 112.381 52.6174C112.833 51.6454 113.452 50.7419 114.285 50.2362C115.758 49.3425 117.638 49.9068 118.897 51.1807C120.156 52.4554 120.891 54.3096 121.408 56.1744C122.923 61.6411 122.821 67.5352 121.962 73.1418C121.552 75.8174 121.637 77.8343 119.026 76.6403C117.175 75.7938 115.586 74.1495 114.449 72.2459Z" fill="#000035"/>
<path d="M126.518 76.0355C126.097 78.2722 124.863 80.3416 123.294 81.8916C122.227 82.9442 120.981 83.7906 119.648 84.1496C118.315 84.5086 116.894 84.3458 115.836 83.5328C114.868 82.789 114.263 81.5593 113.968 80.2435C113.288 77.206 114.208 73.6786 116.074 71.0373C117.37 69.2022 119.204 67.7039 121.177 67.456C125.155 66.9548 127.263 72.0785 126.518 76.0355Z" fill="#EBA08C"/>
<path d="M115.32 80.6947C116.274 80.6399 117.22 80.2999 118.024 79.7227C118.267 79.5478 118.522 79.2999 118.511 78.9918C118.504 78.82 118.413 78.6686 118.321 78.5294C117.779 77.7073 117.103 76.9886 116.331 76.4129C116.895 75.1435 117.467 73.8583 118.308 72.773C119.149 71.6877 120.303 70.8062 121.593 70.6267C122.885 70.4473 124.292 71.1066 124.784 72.3744C124.784 72.3744 126.517 76.0349 122.436 79.9973C118.134 84.1764 115.32 80.6947 115.32 80.6947Z" fill="#EBA08C"/>
<path d="M124.786 72.375C124.296 71.4707 123.356 70.9817 122.442 70.9247C121.525 70.8585 120.644 71.2464 119.917 71.8145C119.185 72.3902 118.599 73.1416 118.106 73.9691C117.618 74.8011 117.194 75.6939 116.775 76.6096L116.621 76.024C117.123 76.4218 117.58 76.8728 117.98 77.3663C118.175 77.6166 118.357 77.8767 118.525 78.1444C118.606 78.2805 118.692 78.4007 118.777 78.5977C118.865 78.7847 118.892 79.0768 118.799 79.2935C118.612 79.7278 118.276 79.8997 118.016 80.0586C117.742 80.2199 117.446 80.34 117.149 80.4435C116.553 80.642 115.929 80.7446 115.319 80.6944C115.916 80.5735 116.483 80.3788 116.993 80.0898C117.249 79.9468 117.485 79.7757 117.714 79.6038C117.947 79.432 118.14 79.2304 118.162 79.0829C118.17 79.0121 118.161 78.9832 118.118 78.8981C118.076 78.8205 117.98 78.6973 117.893 78.5825C117.716 78.3543 117.528 78.1352 117.329 77.9276C116.939 77.507 116.508 77.1268 116.042 76.8021L115.73 76.5845L115.889 76.2164C116.287 75.2924 116.684 74.3387 117.24 73.4451C117.784 72.5507 118.487 71.6989 119.392 71.0897C120.278 70.4828 121.428 70.0987 122.528 70.3451C123.597 70.5672 124.55 71.3681 124.786 72.375Z" fill="#000035"/>
<path d="M46.2779 76.0355C46.6992 78.2722 47.9336 80.3416 49.5025 81.8916C50.5688 82.9442 51.8153 83.7906 53.1485 84.1496C54.481 84.5086 55.9024 84.3458 56.9611 83.5328C57.9292 82.789 58.5338 81.5593 58.8289 80.2435C59.5088 77.206 58.5893 73.6786 56.723 71.0373C55.4271 69.2022 53.5934 67.7039 51.6198 67.456C47.6415 66.9548 45.5333 72.0785 46.2779 76.0355Z" fill="#EBA08C"/>
<path d="M57.4751 80.6947C56.5214 80.6399 55.5753 80.2999 54.7714 79.7227C54.5281 79.5478 54.2733 79.2999 54.2847 78.9918C54.2915 78.82 54.382 78.6686 54.4733 78.5294C55.0156 77.7073 55.6917 76.9886 56.4636 76.4129C55.9001 75.1435 55.3274 73.8583 54.487 72.773C53.6459 71.6877 52.4921 70.8062 51.2015 70.6267C49.9101 70.4473 48.5031 71.1066 48.0103 72.3744C48.0103 72.3744 46.2778 76.0349 50.3588 79.9973C54.6627 84.1764 57.4751 80.6947 57.4751 80.6947Z" fill="#EBA08C"/>
<path d="M48.0103 72.3751C48.2453 71.3681 49.199 70.5665 50.2683 70.3452C51.3672 70.0988 52.5179 70.4821 53.4039 71.0898C54.3097 71.6982 55.0117 72.5508 55.5555 73.4451C56.1114 74.3388 56.5084 75.2925 56.9069 76.2165L57.0659 76.5846L56.7541 76.8021C56.2879 77.1269 55.8567 77.5071 55.4665 77.9277C55.268 78.1353 55.0802 78.3544 54.903 78.5825C54.8163 78.6974 54.7196 78.8206 54.6778 78.8981C54.6345 78.9826 54.6261 79.0122 54.6337 79.083C54.6558 79.2313 54.8489 79.4328 55.0817 79.6039C55.3113 79.7758 55.5471 79.9469 55.8026 80.0899C56.313 80.3789 56.8788 80.5728 57.4766 80.6945C56.8666 80.7447 56.243 80.642 55.6467 80.4435C55.3501 80.3409 55.0543 80.2199 54.7797 80.0587C54.5196 79.8998 54.1835 79.7279 53.9972 79.2936C53.9036 79.0769 53.9317 78.7848 54.0192 78.5977C54.1044 78.4008 54.1911 78.2806 54.2717 78.1445C54.4398 77.8767 54.6216 77.6166 54.817 77.3664C55.217 76.8728 55.6734 76.4226 56.1753 76.0241L56.0217 76.6097C55.6026 75.694 55.179 74.8004 54.6907 73.9691C54.1972 73.1417 53.6116 72.391 52.8792 71.8146C52.1529 71.2464 51.2714 70.8586 50.355 70.9248C49.4401 70.9818 48.5 71.4716 48.0103 72.3751Z" fill="#000035"/>
<path d="M78.6112 68.9741C78.6112 70.5134 77.3632 71.7607 75.8247 71.7607C74.2854 71.7607 73.0381 70.5126 73.0381 68.9741C73.0381 67.4348 74.2861 66.1875 75.8247 66.1875C77.3632 66.1875 78.6112 67.4348 78.6112 68.9741Z" fill="#000035"/>
<path d="M66.3604 67.2532C66.8821 65.8173 67.7186 64.4887 68.7119 63.2718C69.7257 62.0702 70.9448 61.0214 72.3084 60.1765C72.653 59.9726 72.9982 59.7658 73.3412 59.546L74.4159 58.9596C74.7893 58.7961 75.1718 58.6478 75.5605 58.5208C75.9575 58.4219 76.3621 58.3504 76.7674 58.2987C78.3965 58.1656 80.1039 58.4151 81.52 59.3946L81.4873 59.6874C79.9404 60.3377 78.6345 60.74 77.3416 61.1887C77.0222 61.3089 76.7013 61.4078 76.3735 61.4808C76.0518 61.5766 75.7225 61.6504 75.3855 61.7104L74.3794 61.9401C74.0501 62.0398 73.7223 62.1531 73.3937 62.2687C72.1115 62.7957 70.8733 63.4863 69.7272 64.3388C68.5605 65.1754 67.5354 66.2189 66.6182 67.3954L66.3604 67.2532Z" fill="#000035"/>
<path d="M97.0181 68.9741C97.0181 70.5134 98.2661 71.7607 99.8047 71.7607C101.344 71.7607 102.591 70.5126 102.591 68.9741C102.591 67.4348 101.343 66.1875 99.8047 66.1875C98.2661 66.1875 97.0181 67.4348 97.0181 68.9741Z" fill="#000035"/>
<path d="M109.011 67.3954C108.094 66.2196 107.069 65.1754 105.902 64.3388C104.756 63.4863 103.518 62.7957 102.236 62.2687C101.907 62.1531 101.579 62.0398 101.25 61.9401L100.244 61.7104C99.9069 61.6504 99.5776 61.5774 99.2559 61.4808C98.9281 61.407 98.6079 61.3081 98.2877 61.1887C96.9941 60.74 95.689 60.3377 94.1421 59.6874L94.1094 59.3946C95.5255 58.4151 97.2321 58.1656 98.8619 58.2987C99.2673 58.3504 99.6719 58.4219 100.069 58.5208C100.458 58.6478 100.84 58.7961 101.213 58.9596L102.287 59.546C102.63 59.7658 102.976 59.9726 103.32 60.1765C104.684 61.0222 105.903 62.0702 106.917 63.2718C107.91 64.4887 108.746 65.8181 109.268 67.2532L109.011 67.3954Z" fill="#000035"/>
<path d="M78.2627 88.2479C79.7549 89.629 81.3839 90.8254 83.1422 91.7129C84.0229 92.1502 84.9295 92.5259 85.8725 92.7343C86.3372 92.8689 86.8149 92.9176 87.2871 92.9952C87.7632 93.0081 88.2447 93.0704 88.7071 93.002C89.644 92.9701 90.5688 92.6909 91.4472 92.3069C92.3431 91.9502 93.1668 91.4094 93.9737 90.8466C95.5762 89.6899 97.0136 88.2707 98.3506 86.7383C97.3885 88.5369 96.0918 90.1759 94.5068 91.525C92.9386 92.8628 90.9803 93.9618 88.7823 94.104C87.6963 94.1831 86.6255 94.0378 85.6041 93.7428C84.5819 93.4515 83.61 93.0203 82.7262 92.4643C80.9443 91.379 79.4134 89.9348 78.2627 88.2479Z" fill="#000035"/>
<path d="M71.8013 104.333C74.4243 105.899 77.217 107.087 80.0804 107.936C82.9461 108.751 85.922 109.213 88.8554 109.101C91.7728 108.979 94.6423 108.091 97.3224 106.797C99.9987 105.48 102.528 103.799 104.862 101.828C102.957 104.232 100.546 106.242 97.8593 107.809C95.1724 109.373 92.1051 110.41 88.9223 110.572C85.7608 110.668 82.6381 110.105 79.7199 109.029C76.8139 107.941 74.0692 106.401 71.8013 104.333Z" fill="#000035"/>
<path opacity="0.2" d="M110.958 80.9303C110.958 83.7047 107.992 85.9544 104.335 85.9544C100.678 85.9544 97.7124 83.7047 97.7124 80.9303C97.7124 78.1552 100.678 75.9062 104.335 75.9062C107.992 75.9062 110.958 78.1552 110.958 80.9303Z" fill="#EBA08C"/>
<path opacity="0.2" d="M78.8323 80.9303C78.8323 83.7047 75.867 85.9544 72.2096 85.9544C68.5522 85.9544 65.5869 83.7047 65.5869 80.9303C65.5869 78.1552 68.5522 75.9062 72.2096 75.9062C75.8678 75.9062 78.8323 78.1552 78.8323 80.9303Z" fill="#EBA08C"/>
<path d="M55.5547 62.0284C58.4417 64.7405 63.2216 64.4393 65.8158 61.382C67.4349 59.4738 68.1475 56.8545 69.2769 54.5501C70.4063 52.2457 72.3373 50.0341 74.6911 50.1535C76.597 50.2501 78.2268 51.8609 80.1289 52.0221C82.6341 52.2351 84.8108 49.7717 85.4694 47.0703C86.128 44.3689 88.1038 40.1328 87.6163 37.3865C85.2115 35.9529 79.3783 37.0823 76.7271 37.7941C66.6653 40.4963 58.6523 51.0243 55.5547 62.0284Z" fill="#000035"/>
<path d="M118.589 62.0284C115.702 64.7405 110.922 64.4393 108.328 61.382C106.708 59.4738 105.996 56.8545 104.866 54.5501C103.737 52.2457 101.806 50.0341 99.4521 50.1535C97.5462 50.2501 95.9164 51.8609 94.0143 52.0221C91.5091 52.2351 89.3325 49.7717 88.6739 47.0703C88.0153 44.3689 87.1285 40.1328 87.616 37.3865C90.0208 35.9529 94.7657 37.0823 97.4169 37.7941C107.478 40.4963 115.491 51.0243 118.589 62.0284Z" fill="#000035"/>
<path d="M87.3496 67.1836C88.549 68.1122 89.5787 69.2659 90.4427 70.5345C91.3036 71.8069 91.985 73.223 92.4056 74.7303C92.6048 75.4962 92.7471 76.2491 92.8482 77.0028C92.9615 77.7573 93.0505 78.5178 93.1053 79.2814C93.1988 80.8184 93.2308 82.3296 92.9722 83.916L92.903 84.3412L92.4809 84.329C91.1249 84.291 89.7688 84.2385 88.4128 84.1564C87.0568 84.0788 85.7008 83.9814 84.3447 83.8301C85.7008 83.6787 87.0568 83.5814 88.4128 83.5038C89.7688 83.4217 91.1249 83.37 92.4809 83.3312L91.9896 83.7441C92.1295 82.3432 92.0846 80.8268 91.9736 79.3635C91.8588 77.9018 91.6763 76.3852 91.3979 74.9813C91.0663 73.5728 90.5339 72.2 89.8426 70.8942C89.1406 69.5968 88.32 68.3426 87.3496 67.1836Z" fill="#000035"/>
<path d="M62.8203 124.941L87.8387 162.285L112.857 124.941" stroke="#000035" stroke-miterlimit="10"/>
<g opacity="0.38">
<path d="M82.093 43.4503C78.9877 42.4707 75.6323 42.6122 72.6244 43.6458C69.6211 44.6778 66.8786 46.5708 65.0883 49.1855C64.1772 50.4715 63.549 51.9485 62.9056 53.4429C62.2531 54.9244 61.564 56.4721 60.4316 57.7201C59.328 58.9697 57.9576 59.9713 56.4426 60.6253C54.9215 61.2589 53.2735 61.592 51.6475 61.4924C54.8926 61.3593 57.9971 59.8025 59.9844 57.3437C62.0127 54.8917 62.5497 51.5317 64.4654 48.7512C66.4071 46.0277 69.2857 44.0443 72.4464 43.0921C74.0291 42.6198 75.6802 42.3848 77.3237 42.4266C78.9627 42.4913 80.597 42.8061 82.093 43.4503Z" fill="white"/>
<path d="M82.4578 35.0279C81.187 34.1799 79.6591 33.8787 78.1745 33.9365C76.6839 33.9738 75.2115 34.3122 73.8022 34.8012C70.983 35.7702 68.3743 37.3635 66.3034 39.4967C64.1709 41.5775 62.7244 44.2653 60.9896 46.7667C60.1188 48.0177 59.1719 49.2338 58.0692 50.3016C56.9542 51.3473 55.6857 52.2661 54.2559 52.7916C55.6134 52.1079 56.7983 51.1519 57.8037 50.04C58.8282 48.944 59.7013 47.7173 60.5021 46.4427C62.1159 43.9109 63.5784 41.1859 65.7634 38.9621C67.9599 36.7892 70.6704 35.1275 73.6235 34.2468C75.0959 33.8125 76.6291 33.5266 78.1753 33.5661C79.707 33.6277 81.2859 34.0354 82.4578 35.0279Z" fill="white"/>
<path d="M90.689 46.2605C91.6237 45.0444 92.9493 44.1432 94.3943 43.5766C95.8545 43.0351 97.4455 42.8503 99.0084 43.0153C102.166 43.3796 104.965 45.3266 106.807 47.8432C107.738 49.1117 108.358 50.5894 108.86 52.0276C109.37 53.4673 109.879 54.8834 110.727 56.0949C112.42 58.5263 115.27 60.1554 118.315 60.3889C116.784 60.4383 115.243 60.0588 113.842 59.3926C112.447 58.7058 111.211 57.686 110.254 56.4395C109.265 55.1907 108.749 53.6795 108.21 52.2664C107.687 50.8366 107.086 49.4783 106.191 48.2873C104.491 45.8673 101.867 44.0512 98.9308 43.5926C96.0142 43.1454 92.8139 44.0382 90.689 46.2605Z" fill="white"/>
<path d="M90.8535 36.5567C92.078 35.7057 93.4857 35.1193 94.9467 34.7505C96.4191 34.4234 97.9493 34.342 99.4612 34.4995C100.974 34.6637 102.451 35.1307 103.817 35.816C105.174 36.5263 106.396 37.4709 107.454 38.5622C109.542 40.7837 111.034 43.4403 112.313 46.128C112.945 47.4749 113.561 48.821 114.345 50.0668C115.104 51.3224 116.077 52.4678 117.335 53.2747C115.986 52.6168 114.913 51.4851 114.034 50.2729C113.168 49.04 112.484 47.7007 111.789 46.3888C110.414 43.7741 108.95 41.1754 106.907 39.0885C105.912 38.0298 104.764 37.1172 103.496 36.4274C102.217 35.7498 100.816 35.3224 99.3836 35.0759C96.5065 34.6371 93.4682 35.1246 90.8535 36.5567Z" fill="white"/>
<path d="M132.098 80.2109C134.086 81.5069 135.792 83.2394 137.135 85.2183C138.478 87.2101 139.317 89.5023 139.906 91.8113C140.5 94.1264 140.825 96.4848 141.313 98.7884C141.791 101.089 142.415 103.372 143.57 105.375C143.697 105.635 143.863 105.87 144.022 106.109C144.187 106.344 144.325 106.599 144.513 106.817C144.88 107.258 145.233 107.712 145.65 108.109C146.482 108.905 147.422 109.595 148.413 110.217C150.387 111.474 152.562 112.496 154.466 113.985C156.364 115.459 158.007 117.247 159.319 119.245C160.608 121.255 161.593 123.462 162.132 125.774C161.427 123.51 160.383 121.364 159.01 119.454C157.659 117.532 156.003 115.83 154.114 114.453C152.221 113.085 150.088 112.059 148.046 110.803C147.025 110.177 146.037 109.469 145.147 108.634C144.268 107.785 143.518 106.806 142.91 105.752C141.71 103.62 141.099 101.259 140.636 98.9276C140.176 96.5882 139.837 94.2465 139.339 91.9474C138.826 89.6567 138.074 87.4132 136.823 85.419C135.608 83.4082 133.985 81.6453 132.098 80.2109Z" fill="white"/>
<path d="M118.8 90.7031C121.167 91.1526 123.131 92.8554 124.471 94.8237C125.813 96.836 126.582 99.142 127.318 101.392C128.754 105.906 130.444 110.335 132.491 114.596C132.992 115.653 133.55 116.665 134.368 117.44C135.181 118.227 136.192 118.818 137.221 119.396C139.309 120.538 141.337 121.89 143.078 123.538C144.84 125.164 146.393 127.012 147.689 129.019C148.972 131.034 150.004 133.205 150.717 135.472C149.842 133.264 148.751 131.149 147.38 129.226C146.039 127.288 144.461 125.514 142.687 123.973C140.914 122.423 138.977 121.106 136.884 120.001C135.844 119.428 134.774 118.824 133.866 117.964C132.943 117.104 132.325 115.999 131.806 114.924C129.799 110.598 128.086 106.136 126.763 101.564C126.095 99.2956 125.4 97.0201 124.16 95.0244C122.951 93.041 121.117 91.3214 118.8 90.7031Z" fill="white"/>
<path d="M110.103 101.793C110.022 102.909 110.234 104.008 110.651 105.02C111.047 106.041 111.588 107 112.212 107.908C113.422 109.747 114.861 111.429 116.333 113.088C117.796 114.755 119.318 116.398 120.67 118.19C122.027 119.971 123.223 121.914 123.966 124.025C123.426 123.046 122.901 122.071 122.236 121.182C121.619 120.265 120.927 119.401 120.213 118.556C118.774 116.875 117.251 115.26 115.763 113.592C114.298 111.91 112.841 110.178 111.718 108.216C111.142 107.251 110.637 106.225 110.3 105.141C109.987 104.055 109.85 102.887 110.103 101.793Z" fill="white"/>
<path d="M42.0244 79.1562C41.073 79.4612 40.155 79.8498 39.288 80.329C38.4324 80.8294 37.6217 81.3998 36.8832 82.0531C35.4017 83.3544 34.1696 84.9264 33.2547 86.6627C32.3421 88.402 31.7116 90.2676 31.4082 92.2153C31.0827 94.16 30.9709 96.1518 30.7009 98.149C30.4157 100.135 29.9388 102.163 28.9646 103.972C27.9972 105.772 26.7012 107.389 25.1589 108.699C23.6295 110.023 21.9517 111.148 20.2101 112.137C18.4548 113.106 16.66 113.985 14.8354 114.797C16.5831 113.83 18.3415 112.886 20.0192 111.817C21.7084 110.771 23.3237 109.607 24.7665 108.266C26.2054 106.925 27.4565 105.387 28.3493 103.655C29.2551 101.927 29.6856 99.9986 29.9479 98.044C30.2354 96.0894 30.3708 94.0892 30.7267 92.0989C31.0697 90.1101 31.7185 88.1335 32.7444 86.3828C33.7544 84.6222 35.0754 83.0448 36.6452 81.7709C37.4392 81.1443 38.2993 80.6104 39.1945 80.1533C40.098 79.7091 41.0517 79.3821 42.0244 79.1562Z" fill="white"/>
<path d="M51.4894 88.5352C47.2281 90.5141 43.7746 94.0672 41.9607 98.3224C41.0511 100.448 40.594 102.74 40.3377 105.053C40.0814 107.37 40.0054 109.717 39.778 112.072C39.5247 114.422 39.1064 116.789 38.2204 119.021C37.7763 120.132 37.2264 121.213 36.5138 122.187C35.8103 123.168 34.9365 124.021 33.9957 124.755C32.0989 126.217 29.9793 127.268 27.9822 128.48C25.9835 129.663 24.0586 131.101 22.876 133.159C23.905 131.011 25.8352 129.459 27.7837 128.164C29.7595 126.88 31.8419 125.768 33.6306 124.299C34.5151 123.558 35.3152 122.735 35.9791 121.805C36.6454 120.875 37.1602 119.84 37.5762 118.769C38.4067 116.618 38.7931 114.309 39.022 111.996C39.2692 109.677 39.3688 107.325 39.6517 104.975C39.9453 102.635 40.4001 100.256 41.4283 98.0882C42.4315 95.9237 43.8324 93.9516 45.5489 92.3142C47.2799 90.6951 49.2915 89.3755 51.4894 88.5352Z" fill="white"/>
<path d="M61.7239 99.8242C60.8318 100.43 59.9907 101.095 59.2712 101.879C58.5297 102.637 57.8916 103.491 57.3638 104.4C56.274 106.216 55.7849 108.268 55.4404 110.384C55.2457 111.438 55.0662 112.511 54.7833 113.57C54.4867 114.625 54.1277 115.665 53.6395 116.643C52.6979 118.613 51.402 120.409 49.8125 121.87C50.4833 121.025 51.1274 120.168 51.6621 119.243C52.2203 118.335 52.7078 117.387 53.1056 116.404C53.9376 114.443 54.3513 112.381 54.6928 110.25C54.8898 109.19 55.0944 108.115 55.4343 107.064C55.7842 106.016 56.2511 105.003 56.8695 104.091C57.4832 103.178 58.1973 102.335 59.0149 101.611C59.8401 100.898 60.7466 100.281 61.7239 99.8242Z" fill="white"/>
</g>
</g>
</svg>
