<svg width="174" height="174" viewBox="0 0 174 174" fill="none" xmlns="http://www.w3.org/2000/svg">
<path d="M86.9999 166.631C130.978 166.631 166.63 130.979 166.63 87.0009C166.63 43.0226 130.978 7.37109 86.9999 7.37109C43.0216 7.37109 7.37012 43.0226 7.37012 87.0009C7.37012 130.979 43.0216 166.631 86.9999 166.631Z" fill="#A8A09D"/>
<path d="M87 173C134.496 173 173 134.496 173 87C173 39.5035 134.496 1 87 1C39.5035 1 1 39.5035 1 87C1 134.496 39.5035 173 87 173Z" stroke="#A8A09D" stroke-width="2" stroke-miterlimit="10"/>
<mask id="mask0_6711_44210" style="mask-type:luminance" maskUnits="userSpaceOnUse" x="7" y="7" width="160" height="160">
<path d="M166.13 87.0009C166.13 130.703 130.702 166.131 86.9999 166.131C43.2977 166.131 7.87012 130.703 7.87012 87.0009C7.87012 43.2987 43.2977 7.87109 86.9999 7.87109C130.702 7.87109 166.13 43.2987 166.13 87.0009Z" fill="white" stroke="white"/>
</mask>
<g mask="url(#mask0_6711_44210)">
<path d="M94.501 110.698C93.456 105.068 94.1161 100.008 94.1161 100.008L85.4583 100.605L76.1836 100.008C76.1836 100.008 77.2795 105.279 76.2923 111.048C82.2853 112.296 88.5582 112.168 94.501 110.698Z" fill="#EBA08C"/>
<path d="M115.357 69.6853C115.357 87.0041 104.343 107.673 83.9988 107.673C63.6546 107.673 52.6406 87.0041 52.6406 69.6853C52.6406 52.3665 57.9582 32.6992 83.9988 32.6992C110.039 32.6992 115.357 52.3673 115.357 69.6853Z" fill="#EBA08C"/>
<path d="M63.5293 66.1751C64.051 64.7392 64.8876 63.4105 65.8809 62.1937C66.8946 60.9921 68.1138 59.9433 69.4774 59.0984C69.8219 58.8945 70.1672 58.6877 70.5102 58.4679L71.5841 57.8815C71.9575 57.718 72.34 57.5697 72.7287 57.4427C73.1257 57.3438 73.5303 57.2723 73.9356 57.2206C75.5647 57.0875 77.2721 57.337 78.6882 58.3165L78.6555 58.6093C77.1086 59.2596 75.8027 59.6619 74.5098 60.1106C74.1904 60.2308 73.8695 60.3296 73.5417 60.4027C73.22 60.4985 72.8907 60.5723 72.5537 60.6323L71.5468 60.862C71.2167 60.9617 70.8897 61.075 70.5612 61.1906C69.2789 61.7176 68.0408 62.4082 66.8946 63.2607C65.728 64.0966 64.7028 65.1407 63.7856 66.3173L63.5293 66.1751Z" fill="#000035"/>
<path d="M94.187 68.6577C94.187 70.197 95.435 71.4442 96.9736 71.4442C98.5129 71.4442 99.7602 70.1962 99.7602 68.6577C99.7602 67.1184 98.5129 65.8711 96.9736 65.8711C95.435 65.8711 94.187 67.1184 94.187 68.6577Z" fill="#000035"/>
<path d="M106.179 66.3173C105.262 65.1415 104.237 64.0973 103.07 63.2607C101.924 62.4082 100.686 61.7168 99.4039 61.1906C99.0753 61.075 98.7483 60.9617 98.4182 60.862L97.4121 60.6323C97.0751 60.5723 96.7458 60.4985 96.4241 60.4027C96.0963 60.3289 95.7761 60.23 95.456 60.1106C94.1623 59.6619 92.8572 59.2596 91.3096 58.6093L91.2769 58.3165C92.6937 57.337 94.4003 57.0875 96.0294 57.2206C96.4348 57.2723 96.8394 57.3438 97.2364 57.4427C97.625 57.5697 98.0076 57.718 98.381 57.8815L99.4548 58.4679C99.7978 58.6877 100.144 58.8945 100.488 59.0984C101.851 59.9441 103.07 60.9921 104.085 62.1937C105.078 63.4105 105.914 64.74 106.437 66.1751L106.179 66.3173Z" fill="#000035"/>
<path d="M75.4312 87.1698C76.9233 88.5509 78.5531 89.7472 80.3107 90.6348C81.1906 91.0721 82.098 91.4478 83.041 91.6562C83.5057 91.7908 83.9833 91.8395 84.4556 91.917C84.9317 91.93 85.4131 91.9923 85.8755 91.9239C86.8125 91.8919 87.7373 91.6128 88.6157 91.2288C89.5116 90.8721 90.3353 90.3313 91.1422 89.7685C92.7446 88.6118 94.182 87.1926 95.519 85.6602C94.557 87.4588 93.2603 89.0978 91.6753 90.4469C90.1071 91.7847 88.1487 92.8837 85.9508 93.0259C84.864 93.105 83.7939 92.9597 82.7726 92.6646C81.7504 92.3733 80.7792 91.9421 79.8947 91.3862C78.1135 90.3001 76.5826 88.8559 75.4312 87.1698Z" fill="#000035"/>
<path d="M68.9697 103.254C71.6696 104.517 74.479 105.43 77.3242 106.09C80.1731 106.707 83.0882 107.065 85.9668 106.975C88.8264 106.886 91.6586 106.158 94.3501 105.063C97.0401 103.95 99.6176 102.498 102.03 100.75C100.016 102.962 97.5314 104.75 94.824 106.107C93.4717 106.796 92.0358 107.325 90.5642 107.745C89.0858 108.136 87.5594 108.383 86.0193 108.447C82.9559 108.516 79.9274 108.072 77.0306 107.201C74.1497 106.309 71.3654 105.05 68.9697 103.254Z" fill="#000035"/>
<path opacity="0.2" d="M108.127 79.8483C108.127 82.6227 105.161 84.8723 101.504 84.8723C97.8459 84.8723 94.8813 82.6227 94.8813 79.8483C94.8813 77.0731 97.8466 74.8242 101.504 74.8242C105.161 74.8242 108.127 77.0739 108.127 79.8483Z" fill="#EBA08C"/>
<path opacity="0.2" d="M76.0017 79.8483C76.0017 82.6227 73.0364 84.8723 69.379 84.8723C65.7209 84.8723 62.7563 82.6227 62.7563 79.8483C62.7563 77.0731 65.7217 74.8242 69.379 74.8242C73.0364 74.8242 76.0017 77.0739 76.0017 79.8483Z" fill="#EBA08C"/>
<path d="M116.209 74.4527C109.877 68.2141 106.909 59.2254 106.333 50.3546C99.0186 54.5215 90.4756 56.5004 82.0747 55.9719C73.6732 55.4433 65.9568 52.9267 59.2223 47.876C59.2056 53.2682 59.1805 58.7303 57.8039 63.9445C56.4274 69.1587 53.526 74.1835 48.9225 76.9922C45.599 64.0662 48.1422 45.9587 56.165 35.293C56.3103 32.1817 58.658 27.6588 61.9952 26.1165C62.1458 26.0465 62.3291 25.988 62.4706 26.0747C62.6386 26.1781 62.6432 26.4177 62.6219 26.6139C62.4645 28.0787 62.0051 29.5107 61.2811 30.7938C62.4082 29.3054 63.8441 28.0513 65.4701 27.1341C66.2025 26.7211 67.0322 26.3667 67.862 26.5021C67.5745 27.636 67.0079 28.6985 66.2261 29.5693C74.7143 26.0678 84.1548 25.2784 93.1412 27.163C99.8734 28.5745 106.527 31.7148 110.633 37.2339C112.294 39.4676 113.487 42.0154 114.484 44.6141C118.368 54.7413 118.426 63.835 116.209 74.4527Z" fill="#000035"/>
<path d="M123.687 74.9613C123.266 77.198 122.032 79.2674 120.462 80.8174C119.396 81.87 118.149 82.7164 116.816 83.0754C115.484 83.4344 114.062 83.2716 113.004 82.4586C112.036 81.7148 111.432 80.4851 111.137 79.1693C110.457 76.1318 111.376 72.6044 113.242 69.9631C114.538 68.128 116.372 66.6297 118.346 66.3818C122.323 65.8806 124.431 71.005 123.687 74.9613Z" fill="#EBA08C"/>
<path d="M112.49 79.6204C113.443 79.5657 114.39 79.2257 115.193 78.6485C115.437 78.4735 115.692 78.2256 115.68 77.9176C115.673 77.7457 115.583 77.5944 115.492 77.4552C114.949 76.6331 114.273 75.9144 113.501 75.3386C114.065 74.0693 114.637 72.784 115.478 71.6987C116.319 70.6135 117.473 69.7313 118.763 69.5525C120.055 69.373 121.462 70.0324 121.955 71.3002C121.955 71.3002 123.687 74.9607 119.606 78.923C115.302 83.1029 112.49 79.6204 112.49 79.6204Z" fill="#EBA08C"/>
<path d="M121.954 71.3008C121.465 70.3973 120.525 69.9075 119.61 69.8504C118.694 69.7843 117.812 70.1721 117.086 70.7403C116.354 71.316 115.767 72.0674 115.275 72.8948C114.786 73.7268 114.363 74.6197 113.944 75.5362L113.79 74.9505C114.293 75.3483 114.749 75.7993 115.148 76.2929C115.344 76.5431 115.526 76.8032 115.694 77.0709C115.774 77.207 115.86 77.328 115.946 77.5242C116.034 77.7113 116.062 78.0033 115.968 78.2201C115.782 78.6543 115.446 78.8262 115.186 78.9852C114.911 79.1464 114.615 79.2666 114.319 79.3692C113.722 79.5677 113.099 79.6704 112.489 79.6202C113.086 79.4993 113.652 79.3046 114.163 79.0156C114.418 78.8726 114.654 78.7015 114.884 78.5296C115.116 78.3577 115.31 78.1562 115.332 78.0086C115.339 77.9379 115.331 77.909 115.288 77.8238C115.245 77.7455 115.149 77.6231 115.062 77.5082C114.885 77.2801 114.697 77.061 114.499 76.8534C114.109 76.4328 113.677 76.0526 113.211 75.7278L112.899 75.5103L113.058 75.1422C113.456 74.2182 113.853 73.2645 114.409 72.3708C114.953 71.4764 115.656 70.6247 116.561 70.0155C117.447 69.4086 118.597 69.0245 119.696 69.2709C120.766 69.4922 121.719 70.2938 121.954 71.3008Z" fill="#000035"/>
<path d="M43.4468 74.9613C43.8681 77.198 45.1017 79.2674 46.6714 80.8174C47.7377 81.87 48.9842 82.7164 50.3174 83.0754C51.6499 83.4344 53.0713 83.2716 54.13 82.4586C55.0981 81.7148 55.7027 80.4851 55.9978 79.1693C56.6777 76.1318 55.7583 72.6044 53.8919 69.9631C52.596 68.128 50.7623 66.6297 48.7888 66.3818C44.8112 65.8806 42.7022 71.005 43.4468 74.9613Z" fill="#EBA08C"/>
<path d="M54.645 79.6204C53.6913 79.5657 52.7452 79.2257 51.9413 78.6485C51.698 78.4735 51.4432 78.2256 51.4546 77.9176C51.4615 77.7457 51.552 77.5944 51.6432 77.4552C52.1855 76.6331 52.8616 75.9144 53.6335 75.3386C53.07 74.0693 52.4973 72.784 51.6569 71.6987C50.8158 70.6135 49.662 69.7313 48.3714 69.5525C47.08 69.373 45.6731 70.0324 45.1802 71.3002C45.1802 71.3002 43.4477 74.9607 47.5287 78.923C51.8326 83.1029 54.645 79.6204 54.645 79.6204Z" fill="#EBA08C"/>
<path d="M45.1792 71.3009C45.415 70.2939 46.3679 69.4923 47.4372 69.271C48.5362 69.0246 49.6869 69.4079 50.5729 70.0156C51.4787 70.6247 52.1806 71.4765 52.7252 72.3709C53.2811 73.2645 53.6781 74.2182 54.0766 75.1423L54.2348 75.5104L53.923 75.7279C53.4568 76.0526 53.0256 76.4329 52.6354 76.8535C52.4369 77.0611 52.2491 77.2801 52.0719 77.5083C51.9852 77.6231 51.8886 77.7463 51.8468 77.8239C51.8034 77.9091 51.7951 77.938 51.8027 78.0087C51.8247 78.157 52.0179 78.3586 52.2506 78.5297C52.4803 78.7016 52.716 78.8727 52.9716 79.0157C53.4819 79.3047 54.0477 79.4986 54.6455 79.6203C54.0356 79.6705 53.4119 79.5678 52.8157 79.3693C52.5191 79.2666 52.2232 79.1457 51.9487 78.9852C51.6886 78.8263 51.3524 78.6544 51.1668 78.2202C51.0733 78.0034 51.1007 77.7113 51.1889 77.5243C51.2741 77.3273 51.3608 77.2071 51.4406 77.071C51.6087 76.8033 51.7905 76.5432 51.9859 76.293C52.386 75.7994 52.8423 75.3491 53.3443 74.9506L53.1906 75.5362C52.7716 74.6206 52.348 73.7269 51.8597 72.8949C51.3669 72.0675 50.7805 71.3168 50.0481 70.7403C49.3218 70.1722 48.4404 69.7843 47.5239 69.8505C46.609 69.9068 45.6697 70.3966 45.1792 71.3009Z" fill="#000035"/>
<path d="M68.6756 120.475C67.4283 121.086 66.0541 121.681 64.6037 122.267C56.0949 125.703 44.8421 128.8 39.5549 132.765C30.9434 139.224 26.9453 166.596 26.9453 166.596H79.5147C77.6179 150.612 74.8762 134.73 71.2941 119.039C70.5032 119.528 69.6308 120.007 68.6756 120.475Z" fill="#000035"/>
<path d="M86.8187 128.941C87.113 128.933 87.3313 128.676 87.5085 128.441C90.5681 124.377 93.4087 120.149 96.0249 115.787C95.888 115.554 95.7724 115.319 95.6842 115.079C95.1495 113.632 94.77 112.147 94.5008 110.699C88.558 112.169 82.2852 112.298 76.2922 111.05C76.0633 112.386 75.7233 113.749 75.2313 115.08C75.1004 115.434 74.8966 115.778 74.6616 116.118C78.4818 120.252 82.3019 124.386 86.122 128.521C86.3122 128.727 86.5388 128.948 86.8187 128.941Z" fill="#EBA08C"/>
<path d="M131.36 132.762C125.796 128.589 113.623 125.378 104.997 121.72C103.805 121.214 102.684 120.7 101.655 120.174C101.575 120.133 101.503 120.092 101.424 120.051C97.4885 135.333 94.67 150.9 93.0044 166.593H143.971C143.971 166.593 139.972 139.221 131.36 132.762Z" fill="#000035"/>
<path d="M96.0244 115.785C93.4082 120.148 90.5676 124.375 87.508 128.439C87.3308 128.674 87.1125 128.93 86.8182 128.939C86.5383 128.946 86.3116 128.724 86.1215 128.519C82.3014 124.384 78.4812 120.25 74.6611 116.115C73.9492 117.143 72.7879 118.111 71.2935 119.035C74.8756 134.726 77.6173 150.609 79.514 166.592H85.2256H85.6872H93.002C94.6668 150.899 97.4861 135.332 101.422 120.049C98.8794 118.726 96.9325 117.325 96.0244 115.785Z" fill="white"/>
<path d="M95.6782 115.578C96.851 116.513 97.9446 117.438 99.1173 118.282C100.277 119.143 101.491 119.905 102.736 120.741C101.256 120.462 99.8839 119.772 98.6686 118.896C97.4655 118.001 96.3924 116.903 95.6782 115.578Z" fill="#000035"/>
<path d="M70.793 119.447C71.7322 118.439 72.7795 117.62 73.7195 116.713C74.6762 115.818 75.5159 114.867 76.2437 113.703C76.1722 114.391 75.9106 115.056 75.5531 115.653C75.1987 116.256 74.7378 116.787 74.2412 117.265C73.2267 118.205 72.0669 118.936 70.793 119.447Z" fill="#000035"/>
<path d="M80.4419 133.295L84.4301 139.484L79.0669 162.587L79.5156 166.595H93.0036L93.5063 162.863L88.9682 139.897L93.0941 133.571L86.819 128.941L80.4419 133.295Z" fill="#F0C02A"/>
<path d="M73.7036 137.696C73.9789 137.284 86.819 128.941 86.819 128.941L100.245 139.071" stroke="#000035" stroke-miterlimit="10"/>
<path d="M57.8052 124.207L72.8256 166.416" stroke="white" stroke-miterlimit="10"/>
<path d="M113.705 124.207L98.6841 166.416" stroke="white" stroke-miterlimit="10"/>
<g opacity="0.28">
<path d="M56.3037 35.7627C59.2561 39.954 63.2937 43.2919 67.8318 45.5507C72.3714 47.811 77.4153 49.0651 82.4781 49.072C87.528 49.1313 92.6464 47.9867 96.9959 45.3872C99.1657 44.0951 101.115 42.4173 102.706 40.4415C104.317 38.4808 105.542 36.1932 106.26 33.7344C105.709 36.2403 104.538 38.6002 103 40.6712C101.44 42.7307 99.4927 44.4974 97.3024 45.8861C92.8959 48.6628 87.6322 49.8348 82.4743 49.8325C77.2966 49.7633 72.1357 48.4856 67.5664 46.0694C65.2856 44.8586 63.1462 43.3832 61.2319 41.6583C59.3344 39.9167 57.643 37.9477 56.3037 35.7627Z" fill="white"/>
<path d="M63.9585 32.7196C65.1099 33.5478 66.3177 34.2855 67.5976 34.8673C68.8639 35.4734 70.1918 35.9419 71.5509 36.2629C74.2652 36.9185 77.0974 37.0401 79.8338 36.5443C82.5732 36.0705 85.2031 35.0057 87.5486 33.4953C88.7191 32.7363 89.815 31.8495 90.7991 30.8547C91.7855 29.8737 92.6229 28.6941 92.9385 27.3008C92.7955 28.7313 91.9924 30.0197 91.0737 31.1065C90.12 32.1788 89.0431 33.1356 87.8779 33.9782C85.5385 35.6522 82.8082 36.7846 79.9661 37.2926C77.1202 37.79 74.1618 37.6379 71.4018 36.8257C68.6365 36.0416 66.0591 34.63 63.9585 32.7196Z" fill="white"/>
<path d="M113.058 42.8359C112.569 44.8993 112.095 46.9588 111.816 49.0381C111.546 51.1158 111.428 53.2111 111.645 55.2774C111.844 57.3392 112.4 59.3661 113.287 61.2415C114.182 63.1117 115.471 64.8122 117.132 66.1333C116.207 65.6085 115.383 64.908 114.641 64.1323C113.916 63.3391 113.292 62.4515 112.767 61.5092C111.717 59.6193 111.113 57.499 110.888 55.352C110.683 53.2035 110.828 51.0375 111.241 48.9422C111.647 46.8454 112.27 44.805 113.058 42.8359Z" fill="white"/>
<path d="M52.4662 42.2031C53.045 43.0755 53.5013 44.0276 53.8937 45.0064C54.2641 45.9944 54.5402 47.0188 54.7288 48.0623C55.1053 50.1507 55.0558 52.3189 54.6132 54.4051C54.1546 56.4874 53.3028 58.4823 52.0966 60.2284C51.4935 61.1008 50.8174 61.9191 50.0728 62.6652C49.31 63.3938 48.5016 64.0722 47.6133 64.6266C48.3974 63.9353 49.1435 63.2112 49.7998 62.4112C50.4736 61.6293 51.0798 60.7928 51.6053 59.9113C52.6564 58.1507 53.4473 56.2387 53.8709 54.2438C54.3113 52.252 54.3812 50.1841 54.1531 48.1467C53.915 46.1084 53.3347 44.1037 52.4662 42.2031Z" fill="white"/>
</g>
<path d="M85.6765 66.3086C85.9868 68.4404 86.3739 70.5371 86.901 72.5852C87.0333 73.0872 87.1945 73.5443 87.4493 73.8789C87.7049 74.2158 88.1102 74.4881 88.5589 74.7976C89.5096 75.4304 90.3043 76.397 90.7683 77.4679C91.2231 78.5486 91.379 79.7745 91.1539 80.9321C90.9227 82.0805 90.3842 83.165 89.5697 83.9924C88.7635 84.8366 87.7102 85.3751 86.6363 85.6542C85.5541 85.9189 84.4437 85.9584 83.3774 85.7964C85.5039 85.6413 87.6425 84.9431 88.908 83.3969C90.1697 81.8683 90.5279 79.6886 89.721 77.9166C89.3423 77.0161 88.7377 76.2533 87.9231 75.6661C87.5124 75.3452 87.0151 75.0007 86.6401 74.4599C86.2667 73.9162 86.1328 73.3154 86.0363 72.7761C85.659 70.6345 85.5145 68.4601 85.6765 66.3086Z" fill="#000035"/>
<path d="M71.3711 68.6577C71.3711 70.197 72.6191 71.4442 74.1577 71.4442C75.697 71.4442 76.9442 70.1962 76.9442 68.6577C76.9442 67.1184 75.697 65.8711 74.1577 65.8711C72.6191 65.8711 71.3711 67.1184 71.3711 68.6577Z" fill="#000035"/>
</g>
</svg>
