<svg width="174" height="174" viewBox="0 0 174 174" fill="none" xmlns="http://www.w3.org/2000/svg">
<path d="M86.9999 166.631C130.978 166.631 166.63 130.979 166.63 87.0009C166.63 43.0226 130.978 7.37109 86.9999 7.37109C43.0216 7.37109 7.37012 43.0226 7.37012 87.0009C7.37012 130.979 43.0216 166.631 86.9999 166.631Z" fill="#A8A09D"/>
<path d="M87 173C134.497 173 173 134.496 173 87C173 39.5035 134.497 1 87 1C39.5035 1 1 39.5035 1 87C1 134.496 39.5035 173 87 173Z" stroke="#A8A09D" stroke-width="2" stroke-miterlimit="10"/>
<mask id="mask0_6711_44268" style="mask-type:luminance" maskUnits="userSpaceOnUse" x="7" y="7" width="160" height="160">
<path d="M86.9999 166.631C130.978 166.631 166.63 130.979 166.63 87.0009C166.63 43.0226 130.978 7.37109 86.9999 7.37109C43.0216 7.37109 7.37012 43.0226 7.37012 87.0009C7.37012 130.979 43.0216 166.631 86.9999 166.631Z" fill="white"/>
</mask>
<g mask="url(#mask0_6711_44268)">
<path d="M134.575 135.313C134.425 134.833 129.953 96.2897 126.413 65.6624C123.973 44.5402 107.095 28.7523 87.2034 28.979C67.1862 29.2071 50.5649 45.5768 48.6993 66.9013L42.5283 137.442L134.575 135.313Z" fill="#000035"/>
<path d="M134.191 132.503C128.627 128.33 116.454 125.119 107.828 121.461C107.698 121.406 107.579 121.35 107.451 121.294C106.402 120.842 105.403 120.384 104.485 119.915C104.077 119.706 103.686 119.495 103.309 119.283C100.869 117.906 99.1141 116.44 98.5148 114.819C98.4525 114.65 98.3947 114.482 98.3361 114.312C91.7674 115.752 84.8626 115.645 78.3418 114.004C78.2536 114.277 78.1623 114.548 78.0627 114.819C77.3896 116.64 75.2609 118.265 72.3381 119.788C72.0651 119.93 71.7936 120.073 71.5069 120.214C70.6977 120.611 69.8299 121 68.9279 121.385C68.4397 121.593 67.9445 121.8 67.4358 122.005C58.9269 125.442 47.6742 128.538 42.3869 132.504C33.7755 138.962 29.7773 166.334 29.7773 166.334H67.8662H73.5953H88.0575H88.5192H109.898H118.707H146.799C146.801 166.334 142.803 138.961 134.191 132.503Z" fill="#F0C02A"/>
<path d="M98.3361 114.313C95.9519 107.37 96.9466 99.75 96.9466 99.75L88.2888 100.347L79.0141 99.75C79.0141 99.75 80.5496 107.146 78.3418 114.005C84.8633 115.647 91.7682 115.752 98.3361 114.313Z" fill="#EBA08C"/>
<path d="M118.188 69.4285C118.188 86.7473 107.174 107.416 86.8299 107.416C66.4857 107.416 55.4717 86.7473 55.4717 69.4285C55.4717 52.1097 69.5111 38.0703 86.8299 38.0703C104.149 38.0711 118.188 52.1105 118.188 69.4285Z" fill="#EBA08C"/>
<path d="M58.9651 71.2287C60.5546 68.9882 61.3744 66.2875 61.8574 63.5831C62.3913 60.5919 62.5015 57.346 61.033 54.6864C60.5804 53.8673 59.9621 53.106 59.1286 52.6793C57.6554 51.9264 55.7754 52.4017 54.5167 53.4756C53.258 54.5495 52.5226 56.1124 52.0055 57.6844C50.4905 62.2917 50.5924 67.2595 51.4518 71.9846C51.8617 74.2396 51.7765 75.9394 54.3882 74.9332C56.2378 74.2191 57.8266 72.8334 58.9651 71.2287Z" fill="#000035"/>
<path d="M116.008 71.2287C114.418 68.9882 113.598 66.2875 113.115 63.5831C112.582 60.5919 112.471 57.346 113.94 54.6864C114.392 53.8673 115.011 53.106 115.844 52.6793C117.317 51.9264 119.197 52.4017 120.456 53.4756C121.715 54.5495 122.45 56.1124 122.967 57.6844C124.482 62.2917 124.38 67.2595 123.521 71.9846C123.111 74.2396 123.196 75.9394 120.585 74.9332C118.734 74.2191 117.146 72.8334 116.008 71.2287Z" fill="#000035"/>
<path d="M126.518 74.6996C126.097 76.9363 124.863 79.0057 123.294 80.5557C122.227 81.6083 120.981 82.4547 119.648 82.8137C118.315 83.1727 116.894 83.0099 115.836 82.1969C114.868 81.4531 114.263 80.2233 113.968 78.9076C113.288 75.8701 114.208 72.3435 116.074 69.7014C117.37 67.8662 119.204 66.368 121.177 66.1201C125.155 65.6189 127.263 70.7433 126.518 74.6996Z" fill="#EBA08C"/>
<path d="M115.32 79.3579C116.274 79.3032 117.22 78.9632 118.024 78.386C118.267 78.2111 118.522 77.9639 118.511 77.6551C118.504 77.4832 118.413 77.3319 118.321 77.1927C117.779 76.3706 117.103 75.6519 116.331 75.0762C116.895 73.8068 117.467 72.5215 118.308 71.437C119.149 70.3517 120.303 69.4703 121.593 69.2908C122.885 69.1113 124.292 69.7707 124.784 71.0385C124.784 71.0385 126.517 74.6989 122.436 78.6613C118.134 82.8404 115.32 79.3579 115.32 79.3579Z" fill="#EBA08C"/>
<path d="M124.786 71.0391C124.296 70.1356 123.356 69.6458 122.442 69.5888C121.525 69.5226 120.644 69.9105 119.918 70.4786C119.185 71.0543 118.6 71.8057 118.106 72.6324C117.618 73.4645 117.194 74.3573 116.775 75.2738L116.622 74.6882C117.124 75.0859 117.58 75.5369 117.98 76.0305C118.175 76.2807 118.357 76.5408 118.525 76.8085C118.606 76.9446 118.692 77.0648 118.778 77.2618C118.866 77.4489 118.893 77.7409 118.8 77.9577C118.613 78.3919 118.277 78.5638 118.017 78.7228C117.743 78.884 117.447 79.0042 117.15 79.1076C116.555 79.3061 115.93 79.4088 115.32 79.3586C115.917 79.2376 116.484 79.043 116.994 78.754C117.25 78.611 117.486 78.4399 117.715 78.268C117.948 78.0961 118.141 77.8945 118.163 77.747C118.171 77.6763 118.162 77.6474 118.119 77.5622C118.077 77.4846 117.981 77.3614 117.894 77.2466C117.717 77.0184 117.529 76.7994 117.33 76.5918C116.94 76.1712 116.509 75.7909 116.043 75.4662L115.731 75.2487L115.89 74.8806C116.288 73.9565 116.685 73.0028 117.241 72.1092C117.785 71.2148 118.488 70.363 119.393 69.7538C120.279 69.1462 121.429 68.7629 122.529 69.0093C123.597 69.2306 124.55 70.0314 124.786 71.0391Z" fill="#000035"/>
<path d="M46.2779 74.6996C46.6992 76.9363 47.9336 79.0057 49.5025 80.5557C50.5688 81.6083 51.8153 82.4547 53.1485 82.8137C54.481 83.1727 55.9024 83.0099 56.9611 82.1969C57.9292 81.4531 58.5338 80.2233 58.8289 78.9076C59.5088 75.8701 58.5893 72.3435 56.723 69.7014C55.4271 67.8662 53.5934 66.368 51.6198 66.1201C47.6415 65.6189 45.5333 70.7433 46.2779 74.6996Z" fill="#EBA08C"/>
<path d="M57.4751 79.3579C56.5214 79.3032 55.5753 78.9632 54.7714 78.386C54.5281 78.2111 54.2733 77.9639 54.2847 77.6551C54.2915 77.4832 54.382 77.3319 54.4733 77.1927C55.0156 76.3706 55.6917 75.6519 56.4636 75.0762C55.9001 73.8068 55.3274 72.5215 54.487 71.437C53.6459 70.3517 52.4921 69.4703 51.2015 69.2908C49.9101 69.1113 48.5031 69.7707 48.0103 71.0385C48.0103 71.0385 46.2778 74.6989 50.3588 78.6613C54.6627 82.8404 57.4751 79.3579 57.4751 79.3579Z" fill="#EBA08C"/>
<path d="M48.0103 71.0391C48.2453 70.0322 49.199 69.2306 50.2683 69.0093C51.3672 68.7629 52.5179 69.1462 53.4039 69.7538C54.3097 70.3623 55.0117 71.2148 55.5555 72.1092C56.1114 73.0028 56.5084 73.9565 56.9069 74.8806L57.0659 75.2487L56.7541 75.4662C56.2879 75.7909 55.8567 76.1712 55.4665 76.5918C55.268 76.7994 55.0802 77.0184 54.903 77.2466C54.8163 77.3614 54.7197 77.4846 54.6778 77.5622C54.6345 77.6466 54.6261 77.6763 54.6337 77.747C54.6558 77.8953 54.8489 78.0969 55.0817 78.268C55.3113 78.4399 55.5471 78.611 55.8026 78.754C56.313 79.043 56.8788 79.2369 57.4766 79.3586C56.8666 79.4088 56.243 79.3061 55.6468 79.1076C55.3501 79.0049 55.0543 78.884 54.7797 78.7228C54.5196 78.5638 54.1835 78.3919 53.9972 77.9577C53.9036 77.7409 53.9317 77.4489 54.0192 77.2618C54.1044 77.0648 54.1911 76.9446 54.2717 76.8085C54.4398 76.5408 54.6216 76.2807 54.817 76.0305C55.217 75.5369 55.6734 75.0867 56.1753 74.6882L56.0217 75.2738C55.6026 74.3581 55.179 73.4645 54.6907 72.6332C54.1972 71.8057 53.6116 71.0551 52.8792 70.4786C52.1529 69.9105 51.2714 69.5226 50.355 69.5888C49.4401 69.6458 48.5008 70.1349 48.0103 71.0391Z" fill="#000035"/>
<path d="M66.4229 67.4686C67.0404 66.0958 67.9218 64.8356 68.9577 63.7108C70.0125 62.6027 71.2332 61.6429 72.5717 60.8634C73.9065 60.096 75.3416 59.3758 76.9075 59.1788C78.4559 58.9727 80.0652 59.0617 81.5133 59.6465L81.4965 59.7979C79.9808 60.0534 78.5784 60.2952 77.2041 60.6709C75.8458 61.0542 74.4442 61.3402 73.1322 61.9441C71.8241 62.5365 70.5883 63.3153 69.4824 64.2622C68.3576 65.1908 67.3781 66.3034 66.5567 67.5423L66.4229 67.4686Z" fill="#000035"/>
<path d="M109.073 67.5423C108.252 66.3034 107.272 65.1908 106.148 64.2622C105.042 63.3153 103.806 62.5365 102.498 61.9441C101.186 61.3402 99.7842 61.0542 98.4259 60.6709C97.0516 60.2952 95.6484 60.0534 94.1334 59.7979L94.1167 59.6465C95.5647 59.0617 97.174 58.9727 98.7225 59.1788C100.288 59.3765 101.724 60.096 103.058 60.8634C104.396 61.6429 105.617 62.6027 106.672 63.7108C107.707 64.8356 108.589 66.0958 109.206 67.4686L109.073 67.5423Z" fill="#000035"/>
<path d="M79.0234 88.4347C80.5156 89.8158 82.1446 91.0121 83.903 91.8996C84.7837 92.3369 85.6902 92.7119 86.6333 92.921C87.098 93.0557 87.5756 93.1043 88.0479 93.1819C88.524 93.1948 89.0054 93.2572 89.4678 93.1895C90.4048 93.1576 91.3296 92.8785 92.208 92.4944C93.1039 92.1377 93.9275 91.5962 94.7345 91.0342C96.3369 89.8774 97.7743 88.4582 99.1113 86.9258C98.1492 88.7244 96.8525 90.3634 95.2676 91.7126C93.6994 93.0503 91.741 94.1493 89.5431 94.2915C88.4571 94.3706 87.3862 94.2254 86.3648 93.9303C85.3427 93.639 84.3707 93.2078 83.487 92.6518C81.7051 91.565 80.1741 90.1208 79.0234 88.4347Z" fill="#000035"/>
<path d="M71.8013 102.993C74.4243 104.56 77.217 105.747 80.0804 106.596C82.9461 107.411 85.922 107.873 88.8554 107.761C91.7728 107.64 94.6423 106.751 97.3224 105.458C99.9987 104.14 102.528 102.46 104.862 100.488C102.957 102.892 100.546 104.902 97.8593 106.469C95.1724 108.033 92.1051 109.07 88.9223 109.232C85.7608 109.328 82.6381 108.765 79.7199 107.689C76.8139 106.601 74.0692 105.062 71.8013 102.993Z" fill="#000035"/>
<path opacity="0.2" d="M104.335 86.1341C107.992 86.1341 110.957 83.8847 110.957 81.11C110.957 78.3353 107.992 76.0859 104.335 76.0859C100.677 76.0859 97.7119 78.3353 97.7119 81.11C97.7119 83.8847 100.677 86.1341 104.335 86.1341Z" fill="#EBA08C"/>
<path opacity="0.2" d="M72.2096 86.1341C75.8672 86.1341 78.8323 83.8847 78.8323 81.11C78.8323 78.3353 75.8672 76.0859 72.2096 76.0859C68.552 76.0859 65.5869 78.3353 65.5869 81.11C65.5869 83.8847 68.552 86.1341 72.2096 86.1341Z" fill="#EBA08C"/>
<path d="M87.6149 68.1211C87.8986 69.63 88.3473 71.0948 88.726 72.5786L89.8881 77.0223C90.6487 79.9884 91.3795 82.9636 92.0541 85.9502L92.1766 86.4925L91.6472 86.5145C90.7818 86.5503 89.9147 86.5601 89.0462 86.551C88.1777 86.5411 87.3069 86.5092 86.4346 86.4415C87.2879 86.2468 88.145 86.0886 89.0029 85.9517C89.8607 85.8164 90.7202 85.7 91.5818 85.6087L91.175 86.1723C90.7597 84.6938 90.3893 83.2062 90.0144 81.7194C89.663 80.2265 89.2987 78.7366 88.9899 77.233C88.6667 75.7332 88.3739 74.2259 88.1222 72.7086C87.9899 71.9519 87.8803 71.1898 87.7898 70.4247C87.7008 69.6612 87.5959 68.893 87.6149 68.1211Z" fill="#000035"/>
<path d="M56.7502 50.8046C58.9557 54.0414 61.9477 57.168 65.8271 57.7064C66.6363 57.819 67.6714 57.673 67.9262 56.8965C68.0327 56.5725 67.9642 56.2203 67.892 55.8872C67.3337 53.3326 66.5359 50.8312 65.513 48.4241C66.9185 50.4327 69.1621 51.6693 71.3744 52.7249C74.6881 54.3053 78.1188 55.6393 81.6302 56.7132C84.3955 57.5589 87.271 58.2487 90.1534 58.0152C90.8615 57.9582 91.7612 57.6235 91.7217 56.914C91.7057 56.6265 91.5239 56.3778 91.349 56.1489C90.1451 54.5692 88.9419 52.9889 87.738 51.4092C89.758 53.0672 92.3217 53.8832 94.8254 54.6293C102.335 56.8668 110.381 58.8061 117.914 56.6508C114.26 46.9054 106.937 37.8672 97.3564 33.8007C93.6914 32.2454 89.7481 31.2582 85.7667 31.2696C81.4583 31.2826 77.2366 32.4545 73.1716 33.8828C69.4511 35.1902 65.7595 36.7477 62.6428 39.1639C58.2097 42.6015 55.1653 47.6659 53.7324 53.0892" fill="#000035"/>
<path d="M71.638 71.8645C71.3862 70.6819 71.8623 69.3563 72.7301 68.4163C73.5895 67.4649 74.8816 66.8108 76.2658 66.8367C77.6499 66.8542 78.9208 67.5523 79.7482 68.5311C80.5848 69.4993 81.0168 70.8416 80.724 72.0151C80.3688 70.8797 79.7079 70.0142 78.9139 69.3753C78.1161 68.7426 77.1662 68.3745 76.2407 68.357C75.3151 68.3418 74.3531 68.6787 73.5332 69.2848C72.7179 69.8971 72.0289 70.7412 71.638 71.8645Z" fill="#000035"/>
<path d="M96.2503 71.8645C95.9985 70.6819 96.4746 69.3563 97.3424 68.4163C98.2018 67.4649 99.4939 66.8108 100.878 66.8367C102.262 66.8542 103.533 67.5523 104.361 68.5311C105.197 69.4993 105.629 70.8416 105.336 72.0151C104.98 70.8797 104.319 70.0142 103.525 69.3753C102.727 68.7426 101.777 68.3745 100.852 68.357C99.9267 68.3418 98.9646 68.6787 98.1447 69.2848C97.3302 69.8971 96.6412 70.7412 96.2503 71.8645Z" fill="#000035"/>
<g opacity="0.38">
<path d="M68.9277 39.9186C70.7872 42.442 73.0643 44.6415 75.6501 46.377C78.2191 48.1315 81.0894 49.4389 84.0942 50.1918L83.7619 50.6557C82.4462 48.7232 81.1213 46.7976 79.7417 44.9107C78.3659 43.0215 76.9521 41.1598 75.501 39.3284L76.0684 38.8516C78.153 41.1377 80.5319 43.1607 83.1573 44.8103C85.7765 46.469 88.624 47.7612 91.5809 48.7042C94.5371 49.6526 97.6203 50.2222 100.73 50.3774C103.84 50.5561 106.977 50.2998 110.037 49.6359C107.018 50.4747 103.861 50.8238 100.716 50.7668C97.5685 50.6854 94.4291 50.1827 91.4007 49.2906C88.3737 48.3917 85.4716 47.0729 82.7831 45.4096C80.1022 43.738 77.616 41.7226 75.517 39.3482L76.0843 38.8713C77.5271 40.7225 78.9325 42.6025 80.2992 44.5099C81.662 46.4204 83.0021 48.3468 84.2722 50.3196L84.7072 50.9949L83.9399 50.7828C80.8818 49.9386 77.9917 48.5362 75.428 46.6957C72.8787 44.8354 70.6412 42.547 68.9277 39.9186Z" fill="white"/>
<path d="M82.2783 33.8086C84.0785 35.5297 86.0642 37.0279 88.2044 38.2455C90.3483 39.454 92.623 40.4229 94.9868 41.0861C97.3459 41.766 99.7895 42.1417 102.248 42.2429L104.096 42.2566L105.944 42.1432L107.79 41.9295C108.396 41.8101 109.008 41.6999 109.624 41.5957C109.03 41.7797 108.431 41.9577 107.829 42.1273L105.992 42.5136L104.124 42.7372L102.241 42.8292C99.7249 42.8657 97.2045 42.5007 94.7791 41.8185C92.3584 41.1196 90.0243 40.102 87.9047 38.7452L86.3532 37.6759L84.8831 36.5024L83.5241 35.2064C83.1012 34.744 82.6867 34.2771 82.2783 33.8086Z" fill="white"/>
<path d="M121.688 84.7188C122.131 88.3237 122.52 91.9309 122.926 95.5358L124.141 106.349L125.358 117.162L125.972 122.57L126.551 127.985C126.205 126.201 125.913 124.41 125.602 122.621L124.777 117.237C124.252 113.644 123.82 110.038 123.385 106.433C123.011 102.822 122.629 99.2107 122.345 95.5905C122.061 91.9719 121.818 88.3488 121.688 84.7188Z" fill="white"/>
<path d="M113.645 96.0117C113.928 97.9914 114.128 99.9771 114.315 101.963C114.51 103.949 114.647 105.938 114.783 107.927C114.901 109.917 115.017 111.908 115.075 113.902L115.159 116.894C115.159 117.894 115.185 118.891 115.163 119.891C115.014 118.901 114.913 117.909 114.787 116.918L114.491 113.94C114.296 111.954 114.16 109.964 114.024 107.976C113.907 105.985 113.791 103.994 113.734 102C113.668 100.007 113.615 98.0119 113.645 96.0117Z" fill="white"/>
<path d="M107.29 103.688C107.625 105.819 107.783 107.943 107.938 110.07C108.069 112.198 108.195 114.324 108.143 116.481C107.597 114.392 107.333 112.258 107.179 110.12C107.049 107.981 107.027 105.831 107.29 103.688Z" fill="white"/>
<path d="M70.1889 106.887C70.4885 108.415 70.5562 109.943 70.5691 111.471C70.5585 112.999 70.4908 114.527 70.1889 116.056C69.8877 114.528 69.82 112.999 69.8086 111.471C69.8215 109.943 69.8892 108.415 70.1889 106.887Z" fill="white"/>
<path d="M58.6895 93.4531C58.7838 96.1066 58.7793 98.7601 58.7474 101.412C58.7238 104.065 58.6264 106.715 58.5131 109.365C58.3823 112.014 58.2348 114.662 58.0134 117.306L57.6682 121.27C57.5206 122.588 57.3967 123.909 57.2202 125.225C57.2248 123.897 57.275 122.572 57.2963 121.246L57.4301 117.272C57.5138 114.623 57.6408 111.977 57.7549 109.33L58.1663 101.392C58.3192 98.7457 58.4705 96.099 58.6895 93.4531Z" fill="white"/>
<path d="M51.8439 90.0391C51.8386 93.0325 51.7504 96.0214 51.6492 99.0103C51.5504 101.998 51.3823 104.983 51.2522 107.97C51.0606 110.954 50.9016 113.939 50.6796 116.921L50.3312 121.393C50.1875 122.882 50.0696 124.372 49.9023 125.86C49.897 124.363 49.9411 122.868 49.9586 121.372L50.0955 116.889C50.1966 113.901 50.3617 110.916 50.4932 107.929C50.6864 104.945 50.8431 101.96 51.0674 98.9791C51.2903 95.997 51.5253 93.0158 51.8439 90.0391Z" fill="white"/>
</g>
<path d="M77.4155 116.459C84.5714 118.275 92.2177 118.116 99.2914 116.004" stroke="#000035" stroke-miterlimit="10"/>
<path d="M53.2367 134.395C51.9932 136.857 51.054 139.45 50.4646 142.115C49.8843 144.782 49.6074 147.511 49.6835 150.233C49.7428 152.955 50.1535 155.667 50.8646 158.301L51.4662 160.259L52.2016 162.175L53.045 164.052C53.3743 164.654 53.6953 165.262 54.0132 165.876C53.6261 165.306 53.2435 164.731 52.8686 164.149L51.8624 162.33L51.0159 160.427L50.3041 158.468C49.4439 155.819 49.0005 153.037 48.9237 150.251C48.8644 147.464 49.1694 144.664 49.8987 141.976L50.5132 139.984L51.2646 138.042L52.1788 136.176C52.5248 135.576 52.8785 134.982 53.2367 134.395Z" fill="#000035"/>
<path d="M125.171 134.395C125.529 134.982 125.883 135.576 126.229 136.176L127.143 138.043L127.894 139.984L128.509 141.977C129.237 144.665 129.543 147.464 129.484 150.252C129.406 153.038 128.964 155.819 128.103 158.468L127.392 160.428L126.545 162.33L125.54 164.15C125.164 164.731 124.781 165.307 124.395 165.877C124.713 165.262 125.034 164.655 125.363 164.053L126.207 162.176L126.942 160.26L127.544 158.302C128.255 155.667 128.666 152.956 128.725 150.233C128.801 147.511 128.524 144.783 127.944 142.116C127.354 139.45 126.414 136.857 125.171 134.395Z" fill="#000035"/>
</g>
</svg>
