<svg width="174" height="174" viewBox="0 0 174 174" fill="none" xmlns="http://www.w3.org/2000/svg">
<path d="M86.9999 166.631C130.978 166.631 166.63 130.979 166.63 87.0009C166.63 43.0226 130.978 7.37109 86.9999 7.37109C43.0216 7.37109 7.37012 43.0226 7.37012 87.0009C7.37012 130.979 43.0216 166.631 86.9999 166.631Z" fill="#A8A09D"/>
<path d="M87 173C134.496 173 173 134.496 173 87C173 39.5035 134.496 1 87 1C39.5035 1 1 39.5035 1 87C1 134.496 39.5035 173 87 173Z" stroke="#A8A09D" stroke-width="2" stroke-miterlimit="10"/>
<mask id="mask0_6711_44399" style="mask-type:luminance" maskUnits="userSpaceOnUse" x="7" y="7" width="160" height="160">
<path d="M86.9999 166.631C130.978 166.631 166.63 130.979 166.63 87.0009C166.63 43.0226 130.978 7.37109 86.9999 7.37109C43.0216 7.37109 7.37012 43.0226 7.37012 87.0009C7.37012 130.979 43.0216 166.631 86.9999 166.631Z" fill="white"/>
</mask>
<g mask="url(#mask0_6711_44399)">
<path d="M117.567 76.1785C117.567 93.4973 106.553 114.166 86.2088 114.166C65.8646 114.166 54.8506 93.4973 54.8506 76.1785C54.8506 58.8597 68.89 44.8203 86.2088 44.8203C103.528 44.8203 117.567 58.8597 117.567 76.1785Z" fill="#EBA08C"/>
<path d="M58.3437 77.9787C59.9332 75.7382 60.7531 73.0375 61.236 70.3331C61.7699 67.3419 61.8802 64.096 60.4116 61.4364C59.9591 60.6173 59.3408 59.856 58.5072 59.4293C57.0341 58.6764 55.154 59.1517 53.8961 60.2256C52.6374 61.2995 51.902 62.8624 51.3848 64.4344C49.8699 69.0417 49.9718 74.0095 50.8312 78.7346C51.2411 80.9896 51.1559 82.6894 53.7676 81.6832C55.6164 80.9691 57.2052 79.5834 58.3437 77.9787Z" fill="#000035"/>
<path d="M115.387 77.9787C113.797 75.7382 112.977 73.0375 112.494 70.3331C111.96 67.3419 111.85 64.096 113.319 61.4364C113.771 60.6173 114.39 59.856 115.223 59.4293C116.696 58.6764 118.576 59.1517 119.834 60.2256C121.093 61.2995 121.828 62.8624 122.345 64.4344C123.86 69.0417 123.759 74.0095 122.899 78.7346C122.489 80.9896 122.574 82.6894 119.963 81.6832C118.113 80.9691 116.524 79.5834 115.387 77.9787Z" fill="#000035"/>
<path d="M77.9897 74.3881C77.9897 75.9275 76.7424 77.1747 75.2031 77.1747C73.6638 77.1747 72.4165 75.9267 72.4165 74.3881C72.4165 72.8488 73.6645 71.6016 75.2031 71.6016C76.7416 71.6016 77.9897 72.8496 77.9897 74.3881Z" fill="#000035"/>
<path d="M65.7393 72.6634C66.261 71.2275 67.0976 69.8988 68.0908 68.682C69.1046 67.4803 70.3237 66.4316 71.6874 65.5866C72.0319 65.3828 72.3772 65.1759 72.7202 64.9561L73.794 64.3698C74.1675 64.2063 74.55 64.058 74.9386 63.9309C75.3356 63.8321 75.7402 63.7606 76.1456 63.7089C77.7754 63.5758 79.482 63.8252 80.8981 64.8048L80.8654 65.0976C79.3185 65.7479 78.0127 66.1502 76.7198 66.5989C76.4004 66.719 76.0794 66.8179 75.7516 66.8909C75.4292 66.9868 75.1006 67.0605 74.7637 67.1206L73.7568 67.3503C73.4267 67.4499 73.0997 67.5632 72.7711 67.6788C71.4889 68.2051 70.2507 68.8964 69.1046 69.749C67.938 70.5848 66.9128 71.629 65.9956 72.8056L65.7393 72.6634Z" fill="#000035"/>
<path d="M99.1836 77.1747C100.723 77.1747 101.97 75.9271 101.97 74.3881C101.97 72.8492 100.723 71.6016 99.1836 71.6016C97.6446 71.6016 96.397 72.8492 96.397 74.3881C96.397 75.9271 97.6446 77.1747 99.1836 77.1747Z" fill="#000035"/>
<path d="M108.39 72.8056C107.473 71.6298 106.448 70.5856 105.281 69.749C104.135 68.8964 102.897 68.2051 101.614 67.6788C101.286 67.5632 100.958 67.4499 100.629 67.3503L99.6217 67.1206C99.2848 67.0605 98.9555 66.9868 98.6338 66.8909C98.306 66.8172 97.9858 66.7183 97.6657 66.5989C96.372 66.1502 95.0669 65.7479 93.52 65.0976L93.4873 64.8048C94.9042 63.8252 96.6108 63.5758 98.2399 63.7089C98.6452 63.7606 99.0498 63.8321 99.4468 63.9309C99.8355 64.058 100.218 64.2063 100.591 64.3698L101.666 64.9561C102.009 65.1759 102.355 65.3828 102.699 65.5866C104.062 66.4316 105.282 67.4803 106.295 68.682C107.289 69.8988 108.124 71.2282 108.647 72.6634L108.39 72.8056Z" fill="#000035"/>
<path d="M77.6406 93.6612C79.1328 95.0424 80.7626 96.2387 82.5202 97.1262C83.4001 97.5635 84.3074 97.9385 85.2505 98.1476C85.7152 98.2822 86.1928 98.3309 86.6651 98.4085C87.1412 98.4214 87.6226 98.4838 88.085 98.4161C89.022 98.3841 89.9468 98.105 90.8252 97.721C91.7211 97.3643 92.5447 96.8228 93.3517 96.2607C94.9533 95.1047 96.3915 93.6848 97.7285 92.1523C96.7664 93.951 95.4697 95.5899 93.8848 96.9391C92.3166 98.2769 90.3582 99.3759 88.1603 99.5181C87.0742 99.5972 86.0034 99.4519 84.982 99.1568C83.9599 98.8655 82.9879 98.4343 82.1042 97.8784C80.323 96.7916 78.7921 95.3473 77.6406 93.6612Z" fill="#000035"/>
<path d="M88.4768 137.193C96.5004 137.193 101.416 130.982 103.864 126.666C100.813 125.107 98.5858 123.442 97.8937 121.57C95.2798 114.496 96.3255 106.5 96.3255 106.5L87.6676 107.097L78.3929 106.5C78.3929 106.5 80.0555 114.496 77.4415 121.57C76.7061 123.561 74.2404 125.32 70.8857 126.964C73.7104 130.75 79.7915 137.193 88.4768 137.193Z" fill="#EBA08C"/>
<path d="M133.57 139.253C128.005 135.08 115.833 131.869 107.206 128.211C104.2 133.514 98.1599 141.151 88.2981 141.151C77.7572 141.151 70.339 133.426 66.8147 128.755C58.3059 132.191 47.053 135.288 41.7658 139.253C33.1544 145.711 29.1562 173.084 29.1562 173.084H87.4372H87.8988H146.18C146.18 173.084 142.181 145.711 133.57 139.253Z" fill="#2847FB"/>
<path d="M88.2982 141.151C98.16 141.151 104.2 133.513 107.206 128.21C106.015 127.704 104.894 127.19 103.864 126.664C101.416 130.981 96.5005 137.191 88.4769 137.191C79.7916 137.191 73.7112 130.748 70.8858 126.962C69.6386 127.574 68.2643 128.168 66.814 128.754C70.339 133.426 77.7572 141.151 88.2982 141.151Z" fill="#071882"/>
<path d="M71.1802 109.746C73.8793 111.01 76.6895 111.922 79.5346 112.582C82.3835 113.199 85.2987 113.558 88.1773 113.467C91.0376 113.378 93.8691 112.65 96.5614 111.555C99.2513 110.442 101.829 108.99 104.241 107.242C102.227 109.454 99.7426 111.243 97.0344 112.6C95.6822 113.289 94.2463 113.818 92.7754 114.238C91.297 114.629 89.7706 114.876 88.2305 114.94C85.1671 115.009 82.1387 114.565 79.2418 113.694C76.3601 112.802 73.5758 111.543 71.1802 109.746Z" fill="#000035"/>
<path opacity="0.2" d="M103.714 91.3645C107.371 91.3645 110.336 89.1152 110.336 86.3405C110.336 83.5658 107.371 81.3164 103.714 81.3164C100.056 81.3164 97.0908 83.5658 97.0908 86.3405C97.0908 89.1152 100.056 91.3645 103.714 91.3645Z" fill="#EBA08C"/>
<path opacity="0.2" d="M71.5885 91.3645C75.2461 91.3645 78.2112 89.1152 78.2112 86.3405C78.2112 83.5658 75.2461 81.3164 71.5885 81.3164C67.9309 81.3164 64.9658 83.5658 64.9658 86.3405C64.9658 89.1152 67.9309 91.3645 71.5885 91.3645Z" fill="#EBA08C"/>
<path d="M86.8099 70.418C87.2191 73.3825 87.4541 76.3577 88.2519 79.161C88.6573 80.5528 89.1729 81.9119 89.8954 83.15C90.5981 84.3965 91.5009 85.5213 92.5854 86.437L92.9155 86.7154L92.7063 87.0614C91.9572 88.3011 90.9951 89.3864 89.9205 90.3119C88.8474 91.2413 87.6564 92.0185 86.3901 92.6156C87.5005 91.7645 88.5417 90.8504 89.4748 89.8495C90.4027 88.8441 91.2241 87.755 91.8599 86.5777L91.98 87.2021C90.7244 86.2667 89.719 85.0331 88.9409 83.6991C88.1797 82.3514 87.6207 80.9026 87.283 79.4112C86.9316 77.9252 86.7712 76.4125 86.7149 74.9104C86.654 73.4069 86.7073 71.9117 86.8099 70.418Z" fill="#000035"/>
<path d="M122.575 74.0999C125.745 71.0434 128.384 46.3543 127.011 42.2139C126.549 43.773 125.49 45.8173 124.242 46.8889C124.923 45.0127 125.445 43.0619 125.524 41.0724C125.689 36.9077 124.608 32.6525 122.877 28.8438C119.405 31.4098 115.019 32.6449 110.668 32.7636C106.317 32.8822 101.89 32.6997 97.8025 31.238C99.03 29.9618 99.9799 28.2628 100.572 26.6094C96.5819 27.741 92.3663 27.8201 88.2115 27.8087C84.0559 27.7973 79.8616 27.7083 75.7905 28.5236C71.7194 29.3389 67.6247 31.7148 65.0305 34.8885C65.3134 32.7826 66.0443 29.8652 66.0359 27.7418C64.2525 30.1147 61.3009 31.4068 59.3707 33.6679C57.7827 35.5281 56.9811 38.0105 57.1895 40.4244C56.7301 39.8517 55.457 39.6205 54.7124 39.6068C53.9678 39.5931 53.2393 39.7992 52.5297 40.0183C50.153 40.7514 47.8319 41.6549 45.5898 42.7182C47.771 44.2377 50.6535 45.1572 53.2879 44.6841C50.0496 47.0821 47.4539 51.1486 47.1558 55.1087C46.8569 59.0696 47.9566 71.9446 50.8002 74.7814C54.288 74.6893 58.2724 64.6367 60.9115 62.406C63.5505 60.1754 65.369 57.0344 65.9652 53.6736C70.158 57.6748 75.63 60.3891 81.4861 60.5959C80.6914 57.7683 79.1247 54.9962 76.8948 53.0348C80.3043 55.511 84.0339 55.654 88.2784 55.7886C92.5229 55.9233 96.8808 55.7628 100.886 57.1424C105.376 58.6893 112.384 63.9545 115.505 67.4681" fill="#000035"/>
<path d="M125.897 81.4497C125.476 83.6864 124.242 85.7558 122.673 87.3058C121.606 88.3584 120.36 89.2048 119.027 89.5638C117.694 89.9228 116.273 89.76 115.215 88.947C114.247 88.2032 113.642 86.9734 113.347 85.6577C112.667 82.6201 113.587 79.0936 115.453 76.4515C116.749 74.6163 118.583 73.1181 120.556 72.8702C124.533 72.3682 126.642 77.4927 125.897 81.4497Z" fill="#EBA08C"/>
<path d="M114.699 86.1087C115.653 86.0539 116.599 85.714 117.403 85.1367C117.646 84.9618 117.901 84.7147 117.889 84.4059C117.883 84.234 117.792 84.0827 117.7 83.9435C117.158 83.1213 116.482 82.4026 115.71 81.8269C116.274 80.5576 116.846 79.2723 117.687 78.187C118.528 77.1017 119.682 76.2195 120.973 76.0408C122.264 75.8613 123.671 76.5207 124.164 77.7885C124.164 77.7885 125.897 81.4489 121.815 85.4113C117.512 89.5904 114.699 86.1087 114.699 86.1087Z" fill="#EBA08C"/>
<path d="M124.164 77.7884C123.674 76.8849 122.734 76.3951 121.82 76.338C120.904 76.2719 120.022 76.6597 119.296 77.2279C118.564 77.8036 117.977 78.555 117.484 79.3824C116.996 80.2145 116.572 81.1073 116.153 82.023L116 81.4374C116.502 81.8352 116.959 82.2861 117.358 82.7797C117.554 83.0299 117.736 83.29 117.903 83.5578C117.984 83.6939 118.07 83.8141 118.155 84.011C118.243 84.1981 118.271 84.4902 118.177 84.7069C117.991 85.1412 117.655 85.3131 117.395 85.472C117.12 85.6332 116.824 85.7534 116.528 85.8568C115.931 86.0553 115.308 86.158 114.698 86.1078C115.295 85.9869 115.861 85.7922 116.372 85.5032C116.627 85.3602 116.863 85.1891 117.093 85.0172C117.325 84.8453 117.519 84.6438 117.541 84.4963C117.548 84.4255 117.54 84.3959 117.497 84.3114C117.455 84.2339 117.358 84.1107 117.271 83.9958C117.094 83.7677 116.906 83.5486 116.708 83.341C116.318 82.9204 115.886 82.5402 115.42 82.2154L115.108 81.9979L115.267 81.6298C115.666 80.7058 116.063 79.7521 116.619 78.8584C117.163 77.9641 117.865 77.1123 118.77 76.5038C119.656 75.8962 120.806 75.5129 121.906 75.7593C122.976 75.9798 123.929 76.7814 124.164 77.7884Z" fill="#000035"/>
<path d="M45.6568 81.4497C46.0781 83.6864 47.3117 85.7558 48.8814 87.3058C49.9477 88.3584 51.1942 89.2048 52.5274 89.5638C53.8599 89.9228 55.2813 89.76 56.34 88.947C57.3081 88.2032 57.9127 86.9734 58.2078 85.6577C58.8877 82.6201 57.9683 79.0936 56.1019 76.4515C54.806 74.6163 52.9723 73.1181 50.9988 72.8702C47.0204 72.3682 44.9122 77.4927 45.6568 81.4497Z" fill="#EBA08C"/>
<path d="M56.8542 86.1087C55.9005 86.0539 54.9544 85.714 54.1505 85.1367C53.9072 84.9618 53.6524 84.7147 53.6646 84.4059C53.6707 84.234 53.7619 84.0827 53.8532 83.9435C54.3954 83.1213 55.0715 82.4026 55.8435 81.8269C55.2799 80.5576 54.7073 79.2723 53.8669 78.187C53.0257 77.1017 51.872 76.2195 50.5814 76.0408C49.29 75.8613 47.883 76.5207 47.3902 77.7885C47.3902 77.7885 45.6577 81.4489 49.7387 85.4113C54.0418 89.5904 56.8542 86.1087 56.8542 86.1087Z" fill="#EBA08C"/>
<path d="M47.3892 77.7891C47.6249 76.7822 48.5779 75.9806 49.6472 75.7593C50.7461 75.5129 51.8968 75.8962 52.7828 76.5038C53.6886 77.113 54.3906 77.9648 54.9351 78.8592C55.4911 79.7528 55.8881 80.7065 56.2866 81.6306L56.4448 81.9987L56.133 82.2162C55.6668 82.5409 55.2356 82.9212 54.8454 83.3418C54.6469 83.5494 54.459 83.7684 54.2818 83.9966C54.1951 84.1114 54.0986 84.2346 54.0567 84.3122C54.0134 84.3966 54.005 84.4263 54.0126 84.497C54.0347 84.6453 54.2278 84.8469 54.4606 85.018C54.6902 85.1899 54.926 85.361 55.1816 85.5039C55.6919 85.7929 56.2577 85.9869 56.8555 86.1086C56.2455 86.1588 55.6219 86.0561 55.0256 85.8576C54.729 85.7549 54.4332 85.634 54.1586 85.4728C53.8985 85.3138 53.5624 85.1419 53.3761 84.7077C53.2825 84.4909 53.3107 84.1989 53.3981 84.0118C53.4833 83.8148 53.57 83.6946 53.6506 83.5585C53.8187 83.2908 54.0004 83.0315 54.1959 82.7805C54.5959 82.2869 55.0523 81.8367 55.5542 81.4382L55.4006 82.0238C54.9815 81.1081 54.5579 80.2145 54.0697 79.3832C53.5761 78.5557 52.9905 77.8051 52.2581 77.2286C51.5318 76.6605 50.6503 76.2726 49.7339 76.3388C48.819 76.3958 47.8797 76.8849 47.3892 77.7891Z" fill="#000035"/>
<g opacity="0.35">
<path d="M64.6978 38.8359C65.7899 41.1479 67.6783 42.9816 69.8192 44.2965C71.9776 45.6123 74.3709 46.4831 76.8024 47.1835L76.5187 47.5547C75.727 46.3416 74.7337 45.251 73.7169 44.1916L70.5881 41.0514L71.0619 40.5935C72.5396 42.1093 74.4318 43.1824 76.4396 43.8889C78.4527 44.6053 80.5807 44.9635 82.7254 45.1681C84.8716 45.378 87.0421 45.4693 89.2188 45.6419C91.3947 45.8366 93.5736 46.1058 95.7114 46.5774C99.9917 47.4816 104.157 49.0095 107.923 51.2425C108.874 51.7847 109.771 52.4114 110.67 53.0335L111.957 54.0488C112.388 54.385 112.776 54.7713 113.188 55.1295C114.789 56.6118 116.231 58.2644 117.44 60.073C114.838 56.5844 111.478 53.721 107.697 51.6341C103.933 49.5062 99.7917 48.1251 95.5738 47.2368C93.4618 46.7865 91.3148 46.5378 89.1633 46.3606C87.0064 46.1979 84.829 46.1454 82.6501 45.9165C80.4757 45.6929 78.2846 45.3103 76.2015 44.5521C74.1245 43.8045 72.1418 42.6675 70.5873 41.0498L71.0611 40.592C72.0848 41.6476 73.1434 42.6873 74.1504 43.7817C75.155 44.8761 76.1422 46.0039 76.9423 47.2892L77.2997 47.8627L76.6586 47.6604C74.2287 46.8938 71.7965 45.9826 69.6564 44.5506C67.53 43.1367 65.6667 41.208 64.6978 38.8359Z" fill="white"/>
<path d="M81.7344 33.2812C83.8289 35.0008 86.1683 36.3918 88.6484 37.4246C91.1254 38.4681 93.7591 39.0993 96.4179 39.3594L96.2042 39.9618C94.4079 38.7989 92.4525 37.7235 90.9254 36.061L88.6187 33.5505L91.4068 35.5218C92.3308 36.1751 93.4397 36.5226 94.5881 36.6641C95.738 36.8132 96.9237 36.7782 98.1139 36.7112C99.3034 36.6367 100.512 36.547 101.729 36.5386C102.943 36.5394 104.156 36.6124 105.361 36.7538C107.767 37.0733 110.127 37.6802 112.382 38.5502C114.627 39.4469 116.764 40.6036 118.698 42.0289C117.676 41.3976 116.629 40.8143 115.556 40.2865C114.475 39.7724 113.366 39.3275 112.244 38.9259C109.992 38.1395 107.653 37.6201 105.289 37.3836C104.107 37.268 102.92 37.2025 101.734 37.2162C100.55 37.2368 99.3642 37.3372 98.1588 37.4261C96.9549 37.506 95.7297 37.5592 94.4938 37.4132C93.2625 37.271 92.0198 36.8595 90.9817 36.1112L91.4631 35.5712C92.8663 37.1379 94.7509 38.214 96.564 39.4111L97.6933 40.1564L96.351 40.0142C93.6215 39.7245 90.9604 38.9434 88.4765 37.8171C85.9949 36.6808 83.7019 35.143 81.7344 33.2812Z" fill="white"/>
<path d="M60.8897 46.1367C60.8843 46.5786 60.8729 47.022 60.8516 47.4661L60.7109 48.794L60.4546 50.1074L60.1139 51.4042C59.6059 53.1214 58.8294 54.7581 57.8734 56.2761C56.9022 57.7842 55.7469 59.1798 54.4054 60.3662L53.3733 61.2226L52.2911 62.0097L51.1465 62.6973C50.7525 62.9041 50.3555 63.1019 49.957 63.2928C50.3152 63.0296 50.675 62.7741 51.0377 62.5277L52.0698 61.7093L53.0638 60.8545L54.0008 59.9426C55.2108 58.6908 56.3067 57.3348 57.2323 55.8669C58.1723 54.4082 58.9381 52.8423 59.5625 51.2171C60.1793 49.5872 60.6083 47.8837 60.8897 46.1367Z" fill="white"/>
</g>
</g>
</svg>
